<svg width="60" height="60" fill="none" xmlns="http://www.w3.org/2000/svg"><path d="M30.886 40.55v-.233a48.1 48.1 0 01-3.441-.169 15.68 15.68 0 01-2.493 4.273c1.986.324 4 .506 6.012.532l-.078-4.402zm-5.259-8.596a13.038 13.038 0 00-8.856-9.752 13.229 13.229 0 00-3.831-.571 13.059 13.059 0 00-8.714 3.363c-5.285 4.805-5.661 12.999-.857 18.284 4.805 5.285 12.999 5.662 18.284.857a12.867 12.867 0 004.234-9.57c0-.87-.091-1.754-.26-2.61zm-12.687.87a4.909 4.909 0 014.727 3.571 4.906 4.906 0 01-3.403 6.052v1.142c0 .715-.584 1.3-1.298 1.3a1.302 1.302 0 01-1.299-1.3v-1.13a4.933 4.933 0 01-3.636-4.739c0-.714.585-1.299 1.299-1.299s1.298.585 1.298 1.299a2.306 2.306 0 102.299-2.312A4.891 4.891 0 018.2 31.772c-.688-2.597.87-5.298 3.48-5.999v-.558c0-.715.585-1.299 1.299-1.299s1.298.584 1.298 1.299v.584a4.909 4.909 0 013.571 4.727c0 .714-.584 1.299-1.298 1.299a1.302 1.302 0 01-1.299-1.3 2.317 2.317 0 00-2.311-2.31 2.317 2.317 0 00-2.312 2.31 2.306 2.306 0 002.312 2.3zm17.907 4.883l-.078-4.597a45.113 45.113 0 01-2.35-.09c.039.519.065 1.025.065 1.531 0 1.013-.104 2.04-.299 3.04.857.077 1.753.116 2.662.116zm14.22-21.491c-.896.467-1.844.844-2.818 1.13-2.922.883-6.753 1.363-10.752 1.363-3.831 0-7.48-.442-10.298-1.26a14.387 14.387 0 01-2.805-1.078l.09 3.663a14.981 14.981 0 014.065 2.298c.04.013.065.013.104.026 2.494.636 5.636.974 8.844.974 3.714 0 7.362-.468 9.999-1.26 2.817-.857 3.44-1.753 3.44-1.922 0-.181-.012-.35.13-.532v-3.402zm-3.585-5.156c-2.636-.805-6.285-1.26-9.999-1.26-3.74 0-7.246.455-9.869 1.26-2.74.831-3.337 1.65-3.35 1.91 0 0 .013 0 .013.025.065.286.844 1.169 3.636 1.974 2.584.753 5.986 1.169 9.57 1.169 3.714 0 7.35-.455 9.986-1.247 2.818-.844 3.454-1.74 3.454-1.922 0-.169-.623-1.052-3.44-1.909zm18.492 35.932v-3.896c-.87.442-1.779.818-2.727 1.104-2.909.883-6.714 1.363-10.726 1.363-3.558 0-7.025-.402-9.752-1.116a16.921 16.921 0 01-3.234-1.182l.065 3.766v.026c0 .194.572 1.064 3.311 1.909 2.598.792 6.104 1.233 9.857 1.233 3.74 0 7.259-.454 9.882-1.272 2.74-.857 3.337-1.753 3.337-1.935h-.013zM45.04 23.462a16.4 16.4 0 01-2.804 1.116c-2.922.884-6.753 1.364-10.766 1.364-1.973 0-3.934-.13-5.882-.377a15.394 15.394 0 012.324 4.831c1.117.078 2.325.13 3.571.13h.13c2.13-2.337 7.857-3.506 13.428-3.662v-3.402zm12.116 13.557c-2.896.857-6.662 1.324-10.61 1.324-3.83 0-7.48-.441-10.297-1.26a15.931 15.931 0 01-2.831-1.09l.052 2.987.013 1.09c1.013 1.26 5.857 2.883 13.05 2.883 3.753 0 7.298-.441 9.96-1.246 2.805-.858 3.416-1.74 3.416-1.922 0-.143.078-.299.078-.429H60v-3.441c-.91.455-1.857.844-2.844 1.104zm-.61-6.299c-2.65-.804-6.285-1.233-10-1.233h-.22c-3.454 0-6.74.39-9.259 1.104-2.688.753-3.61 1.61-3.727 1.96-.013.027-.013.04-.013.053l.026.052c.078.272.844 1.155 3.636 1.973 2.584.74 5.986 1.156 9.57 1.156 3.702 0 7.208-.428 9.87-1.22 2.883-.858 3.532-1.754 3.545-1.948v-.013c-.013-.195-.662-1.052-3.428-1.883z" fill="#F42D2D"/></svg>