<svg width="39" height="924" fill="none" xmlns="http://www.w3.org/2000/svg"><path stroke="#F42D2D" stroke-width="2" d="M19 9v897"/><path opacity=".7" d="M19 10h20" stroke="#F42D2D" stroke-width="2" stroke-dasharray="10 10"/><circle opacity=".2" cx="19" cy="9" r="9" fill="#F42D2D"/><circle cx="19" cy="9" r="5" fill="#F42D2D"/><circle opacity=".2" cx="19" cy="94" r="9" fill="#F42D2D"/><circle cx="19" cy="94" r="5" fill="#F42D2D"/><circle opacity=".2" cx="19" cy="191" r="9" fill="#F42D2D"/><circle cx="19" cy="191" r="5" fill="#F42D2D"/><circle opacity=".2" cx="19" cy="302" r="9" fill="#F42D2D"/><circle cx="19" cy="302" r="5" fill="#F42D2D"/><circle opacity=".2" cx="19" cy="412" r="9" fill="#F42D2D"/><circle cx="19" cy="412" r="5" fill="#F42D2D"/><circle opacity=".2" cx="19" cy="498" r="9" fill="#F42D2D"/><circle cx="19" cy="498" r="5" fill="#F42D2D"/><circle opacity=".2" cx="19" cy="572" r="9" fill="#F42D2D"/><circle cx="19" cy="572" r="5" fill="#F42D2D"/><circle opacity=".2" cx="19" cy="646" r="9" fill="#F42D2D"/><circle cx="19" cy="646" r="5" fill="#F42D2D"/><circle opacity=".2" cx="19" cy="726" r="9" fill="#F42D2D"/><circle cx="19" cy="726" r="5" fill="#F42D2D"/><circle opacity=".2" cx="19" cy="818" r="9" fill="#F42D2D"/><circle cx="19" cy="818" r="5" fill="#F42D2D"/><path opacity=".7" d="M19 192.429h20M19 302h20M19 572h20M19 726h20M19 906h20" stroke="#F42D2D" stroke-width="2" stroke-dasharray="10 10"/><circle opacity=".2" cx="19" cy="905" r="19" fill="#F42D2D"/><circle cx="19" cy="905" r="5" fill="#F42D2D"/><path opacity=".7" d="M19 94h20M19 498.5h20M19 647.215h20M19 412.5h20M19 818.643h20" stroke="#F42D2D" stroke-width="2" stroke-dasharray="10 10"/></svg>