<svg width="26" height="26" fill="none" xmlns="http://www.w3.org/2000/svg"><circle cx="13" cy="13" r="13" fill="#F42D2D"/><path d="M19.99 9.016c0-.016.01-.031.01-.047l-4.273 4.116 4.268 3.985c.002-.028-.005-.057-.005-.086V9.016zm-4.915 4.703l-1.744 1.678a.455.455 0 01-.627.005l-1.74-1.621-4.295 4.14a.99.99 0 00.334.067h12.023a.989.989 0 00.48-.133l-4.43-4.136z" fill="#fff"/><path d="M13.01 14.44l6.52-6.28a.988.988 0 00-.503-.148H7.004a.99.99 0 00-.63.236l6.636 6.192zM6 9.17v7.814c0 .09.02.176.043.259l4.242-4.085L6 9.17z" fill="#fff"/></svg>