<svg width="250" height="966" fill="none" xmlns="http://www.w3.org/2000/svg"><path d="M196.767 70.864c-4.176 0-7.896-1.032-11.16-3.096-3.264-2.064-5.832-5.04-7.704-8.928-1.824-3.936-2.736-8.616-2.736-14.04 0-5.424.912-10.08 2.736-13.968 1.872-3.936 4.44-6.936 7.704-9 3.264-2.064 6.984-3.096 11.16-3.096s7.896 1.032 11.16 3.096c3.264 2.064 5.808 5.064 7.632 9 1.872 3.888 2.808 8.544 2.808 13.968 0 5.424-.936 10.104-2.808 14.04-1.824 3.888-4.368 6.864-7.632 8.928-3.264 2.064-6.984 3.096-11.16 3.096zm0-9.864c3.072 0 5.472-1.32 7.2-3.96 1.776-2.64 2.664-6.72 2.664-12.24 0-5.52-.888-9.6-2.664-12.24-1.728-2.64-4.128-3.96-7.2-3.96-3.024 0-5.424 1.32-7.2 3.96-1.728 2.64-2.592 6.72-2.592 12.24 0 5.52.864 9.6 2.592 12.24 1.776 2.64 4.176 3.96 7.2 3.96zm46.286-41.4V70h-11.664V28.96h-10.08V19.6h21.744zm-64.559 133.264c-4.176 0-7.896-1.032-11.16-3.096-3.264-2.064-5.832-5.04-7.704-8.928-1.824-3.936-2.736-8.616-2.736-14.04 0-5.424.912-10.08 2.736-13.968 1.872-3.936 4.44-6.936 7.704-9 3.264-2.064 6.984-3.096 11.16-3.096s7.896 1.032 11.16 3.096c3.264 2.064 5.808 5.064 7.632 9 1.872 3.888 2.808 8.544 2.808 13.968 0 5.424-.936 10.104-2.808 14.04-1.824 3.888-4.368 6.864-7.632 8.928-3.264 2.064-6.984 3.096-11.16 3.096zm0-9.864c3.072 0 5.472-1.32 7.2-3.96 1.776-2.64 2.664-6.72 2.664-12.24 0-5.52-.888-9.6-2.664-12.24-1.728-2.64-4.128-3.96-7.2-3.96-3.024 0-5.424 1.32-7.2 3.96-1.728 2.64-2.592 6.72-2.592 12.24 0 5.52.864 9.6 2.592 12.24 1.776 2.64 4.176 3.96 7.2 3.96zm64.501-.504V152h-38.088v-7.56l19.44-18.36c2.064-1.968 3.456-3.648 4.176-5.04.72-1.44 1.08-2.856 1.08-4.248 0-2.016-.696-3.552-2.088-4.608-1.344-1.104-3.336-1.656-5.976-1.656-2.208 0-4.2.432-5.976 1.296-1.776.816-3.264 2.064-4.464 3.744l-8.496-5.472c1.968-2.928 4.68-5.208 8.136-6.84 3.456-1.68 7.416-2.52 11.88-2.52 3.744 0 7.008.624 9.792 1.872 2.832 1.2 5.016 2.928 6.552 5.184 1.584 2.208 2.376 4.824 2.376 7.848 0 2.736-.576 5.304-1.728 7.704-1.152 2.4-3.384 5.136-6.696 8.208l-11.592 10.944h21.672zM170.9 362.864c-4.176 0-7.896-1.032-11.16-3.096-3.264-2.064-5.832-5.04-7.704-8.928-1.824-3.936-2.736-8.616-2.736-14.04 0-5.424.912-10.08 2.736-13.968 1.872-3.936 4.44-6.936 7.704-9 3.264-2.064 6.984-3.096 11.16-3.096s7.896 1.032 11.16 3.096c3.264 2.064 5.808 5.064 7.632 9 1.872 3.888 2.808 8.544 2.808 13.968 0 5.424-.936 10.104-2.808 14.04-1.824 3.888-4.368 6.864-7.632 8.928-3.264 2.064-6.984 3.096-11.16 3.096zm0-9.864c3.072 0 5.472-1.32 7.2-3.96 1.776-2.64 2.664-6.72 2.664-12.24 0-5.52-.888-9.6-2.664-12.24-1.728-2.64-4.128-3.96-7.2-3.96-3.024 0-5.424 1.32-7.2 3.96-1.728 2.64-2.592 6.72-2.592 12.24 0 5.52.864 9.6 2.592 12.24 1.776 2.64 4.176 3.96 7.2 3.96zm73.419-1.584h-8.208V362h-11.376v-10.584h-27.144v-7.848l23.76-31.968h12.24l-22.032 30.312h13.536v-9.432h11.016v9.432h8.208v9.504zm-69.622 207.448c-4.176 0-7.896-1.032-11.16-3.096-3.264-2.064-5.832-5.04-7.704-8.928-1.824-3.936-2.736-8.616-2.736-14.04 0-5.424.912-10.08 2.736-13.968 1.872-3.936 4.44-6.936 7.704-9 3.264-2.064 6.984-3.096 11.16-3.096s7.896 1.032 11.16 3.096c3.264 2.064 5.808 5.064 7.632 9 1.872 3.888 2.808 8.544 2.808 13.968 0 5.424-.936 10.104-2.808 14.04-1.824 3.888-4.368 6.864-7.632 8.928-3.264 2.064-6.984 3.096-11.16 3.096zm0-9.864c3.072 0 5.472-1.32 7.2-3.96 1.776-2.64 2.664-6.72 2.664-12.24 0-5.52-.888-9.6-2.664-12.24-1.728-2.64-4.128-3.96-7.2-3.96-3.024 0-5.424 1.32-7.2 3.96-1.728 2.64-2.592 6.72-2.592 12.24 0 5.52.864 9.6 2.592 12.24 1.776 2.64 4.176 3.96 7.2 3.96zm51.531-22.608c3.216 0 6.144.648 8.784 1.944 2.64 1.296 4.728 3.144 6.264 5.544 1.536 2.352 2.304 5.088 2.304 8.208 0 3.36-.84 6.312-2.52 8.856-1.68 2.544-3.984 4.512-6.912 5.904-2.88 1.344-6.096 2.016-9.648 2.016-7.056 0-12.576-2.16-16.56-6.48-3.984-4.32-5.976-10.488-5.976-18.504 0-5.712 1.08-10.608 3.24-14.688s5.16-7.176 9-9.288c3.888-2.112 8.376-3.168 13.464-3.168 2.688 0 5.256.312 7.704.936 2.496.576 4.608 1.416 6.336 2.52l-4.32 8.568c-2.496-1.68-5.64-2.52-9.432-2.52-4.272 0-7.656 1.248-10.152 3.744-2.496 2.496-3.84 6.12-4.032 10.872 2.976-2.976 7.128-4.464 12.456-4.464zm-2.376 23.76c2.496 0 4.512-.672 6.048-2.016 1.584-1.344 2.376-3.168 2.376-5.472 0-2.304-.792-4.128-2.376-5.472-1.536-1.392-3.6-2.088-6.192-2.088-2.544 0-4.632.72-6.264 2.16-1.632 1.392-2.448 3.192-2.448 5.4s.792 4.008 2.376 5.4c1.584 1.392 3.744 2.088 6.48 2.088zM173.01 709.864c-4.176 0-7.896-1.032-11.16-3.096-3.264-2.064-5.832-5.04-7.704-8.928-1.824-3.936-2.736-8.616-2.736-14.04 0-5.424.912-10.08 2.736-13.968 1.872-3.936 4.44-6.936 7.704-9 3.264-2.064 6.984-3.096 11.16-3.096s7.896 1.032 11.16 3.096c3.264 2.064 5.808 5.064 7.632 9 1.872 3.888 2.808 8.544 2.808 13.968 0 5.424-.936 10.104-2.808 14.04-1.824 3.888-4.368 6.864-7.632 8.928-3.264 2.064-6.984 3.096-11.16 3.096zm0-9.864c3.072 0 5.472-1.32 7.2-3.96 1.776-2.64 2.664-6.72 2.664-12.24 0-5.52-.888-9.6-2.664-12.24-1.728-2.64-4.128-3.96-7.2-3.96-3.024 0-5.424 1.32-7.2 3.96-1.728 2.64-2.592 6.72-2.592 12.24 0 5.52.864 9.6 2.592 12.24 1.776 2.64 4.176 3.96 7.2 3.96zm61.755-17.496c2.496 1.248 4.392 2.88 5.688 4.896 1.344 2.016 2.016 4.344 2.016 6.984 0 3.12-.888 5.856-2.664 8.208-1.776 2.304-4.272 4.104-7.488 5.4-3.216 1.248-6.936 1.872-11.16 1.872s-7.944-.624-11.16-1.872c-3.168-1.296-5.64-3.096-7.416-5.4-1.728-2.352-2.592-5.088-2.592-8.208 0-2.64.648-4.968 1.944-6.984 1.344-2.016 3.24-3.648 5.688-4.896-1.872-1.152-3.312-2.592-4.32-4.32-1.008-1.776-1.512-3.792-1.512-6.048 0-2.928.816-5.472 2.448-7.632 1.632-2.16 3.912-3.816 6.84-4.968 2.928-1.2 6.288-1.8 10.08-1.8 3.84 0 7.224.6 10.152 1.8 2.976 1.152 5.28 2.808 6.912 4.968 1.632 2.16 2.448 4.704 2.448 7.632 0 2.256-.504 4.272-1.512 6.048-1.008 1.728-2.472 3.168-4.392 4.32zm-13.608-16.2c-2.352 0-4.248.576-5.688 1.728-1.392 1.104-2.088 2.64-2.088 4.608 0 1.92.696 3.432 2.088 4.536 1.392 1.104 3.288 1.656 5.688 1.656s4.32-.552 5.76-1.656c1.44-1.104 2.16-2.616 2.16-4.536 0-1.968-.72-3.504-2.16-4.608-1.44-1.152-3.36-1.728-5.76-1.728zm0 34.992c2.928 0 5.232-.648 6.912-1.944 1.728-1.344 2.592-3.12 2.592-5.328s-.864-3.96-2.592-5.256c-1.68-1.296-3.984-1.944-6.912-1.944-2.88 0-5.16.648-6.84 1.944-1.68 1.296-2.52 3.048-2.52 5.256 0 2.256.84 4.032 2.52 5.328 1.68 1.296 3.96 1.944 6.84 1.944zM190.186 822.6V873h-11.665v-41.04h-10.079v-9.36h21.744zm30.355 51.264c-4.176 0-7.896-1.032-11.16-3.096-3.264-2.064-5.832-5.04-7.704-8.928-1.824-3.936-2.736-8.616-2.736-14.04 0-5.424.912-10.08 2.736-13.968 1.872-3.936 4.44-6.936 7.704-9 3.264-2.064 6.984-3.096 11.16-3.096s7.896 1.032 11.16 3.096c3.264 2.064 5.808 5.064 7.632 9 1.872 3.888 2.808 8.544 2.808 13.968 0 5.424-.936 10.104-2.808 14.04-1.824 3.888-4.368 6.864-7.632 8.928-3.264 2.064-6.984 3.096-11.16 3.096zm0-9.864c3.072 0 5.472-1.32 7.2-3.96 1.776-2.64 2.664-6.72 2.664-12.24 0-5.52-.888-9.6-2.664-12.24-1.728-2.64-4.128-3.96-7.2-3.96-3.024 0-5.424 1.32-7.2 3.96-1.728 2.64-2.592 6.72-2.592 12.24 0 5.52.864 9.6 2.592 12.24 1.776 2.64 4.176 3.96 7.2 3.96zm-41.906-614.136c-4.176 0-7.896-1.032-11.16-3.096-3.264-2.064-5.832-5.04-7.704-8.928-1.824-3.936-2.736-8.616-2.736-14.04 0-5.424.912-10.08 2.736-13.968 1.872-3.936 4.44-6.936 7.704-9 3.264-2.064 6.984-3.096 11.16-3.096s7.896 1.032 11.16 3.096c3.264 2.064 5.808 5.064 7.632 9 1.872 3.888 2.808 8.544 2.808 13.968 0 5.424-.936 10.104-2.808 14.04-1.824 3.888-4.368 6.864-7.632 8.928-3.264 2.064-6.984 3.096-11.16 3.096zm0-9.864c3.072 0 5.472-1.32 7.2-3.96 1.776-2.64 2.664-6.72 2.664-12.24 0-5.52-.888-9.6-2.664-12.24-1.728-2.64-4.128-3.96-7.2-3.96-3.024 0-5.424 1.32-7.2 3.96-1.728 2.64-2.592 6.72-2.592 12.24 0 5.52.864 9.6 2.592 12.24 1.776 2.64 4.176 3.96 7.2 3.96zm50.108-20.88c4.416.72 7.8 2.376 10.152 4.968 2.352 2.544 3.528 5.712 3.528 9.504 0 2.928-.768 5.64-2.304 8.136-1.536 2.448-3.888 4.416-7.056 5.904-3.12 1.488-6.96 2.232-11.52 2.232a41.03 41.03 0 01-10.512-1.368c-3.408-.96-6.312-2.304-8.712-4.032l4.536-8.928c1.92 1.44 4.128 2.568 6.624 3.384a26.765 26.765 0 007.776 1.152c2.928 0 5.232-.552 6.912-1.656 1.68-1.152 2.52-2.76 2.52-4.824 0-4.128-3.144-6.192-9.432-6.192h-5.328v-7.704l10.368-11.736h-21.456v-9.36h35.28v7.56l-11.376 12.96zm-51.022 245.744c-4.176 0-7.896-1.032-11.16-3.096-3.264-2.064-5.832-5.04-7.704-8.928-1.824-3.936-2.736-8.616-2.736-14.04 0-5.424.912-10.08 2.736-13.968 1.872-3.936 4.44-6.936 7.704-9 3.264-2.064 6.984-3.096 11.16-3.096s7.896 1.032 11.16 3.096c3.264 2.064 5.808 5.064 7.632 9 1.872 3.888 2.808 8.544 2.808 13.968 0 5.424-.936 10.104-2.808 14.04-1.824 3.888-4.368 6.864-7.632 8.928-3.264 2.064-6.984 3.096-11.16 3.096zm0-9.864c3.072 0 5.472-1.32 7.2-3.96 1.776-2.64 2.664-6.72 2.664-12.24 0-5.52-.888-9.6-2.664-12.24-1.728-2.64-4.128-3.96-7.2-3.96-3.024 0-5.424 1.32-7.2 3.96-1.728 2.64-2.592 6.72-2.592 12.24 0 5.52.864 9.6 2.592 12.24 1.776 2.64 4.176 3.96 7.2 3.96zm44.547-22.464c7.104 0 12.336 1.416 15.696 4.248 3.408 2.832 5.112 6.624 5.112 11.376 0 3.072-.768 5.88-2.304 8.424-1.536 2.496-3.888 4.512-7.056 6.048-3.12 1.488-6.984 2.232-11.592 2.232a41.03 41.03 0 01-10.512-1.368c-3.408-.96-6.312-2.304-8.712-4.032l4.608-8.928c1.92 1.44 4.128 2.568 6.624 3.384a26.049 26.049 0 007.704 1.152c2.928 0 5.232-.576 6.912-1.728 1.68-1.152 2.52-2.76 2.52-4.824 0-2.16-.888-3.792-2.664-4.896-1.728-1.104-4.752-1.656-9.072-1.656h-12.888l2.592-28.368h30.744v9.36h-21.024l-.792 9.576h4.104zm-46.094 200.328c-4.176 0-7.896-1.032-11.16-3.096-3.264-2.064-5.832-5.04-7.704-8.928-1.824-3.936-2.736-8.616-2.736-14.04 0-5.424.912-10.08 2.736-13.968 1.872-3.936 4.44-6.936 7.704-9 3.264-2.064 6.984-3.096 11.16-3.096s7.896 1.032 11.16 3.096c3.264 2.064 5.808 5.064 7.632 9 1.872 3.888 2.808 8.544 2.808 13.968 0 5.424-.936 10.104-2.808 14.04-1.824 3.888-4.368 6.864-7.632 8.928-3.264 2.064-6.984 3.096-11.16 3.096zm0-9.864c3.072 0 5.472-1.32 7.2-3.96 1.776-2.64 2.664-6.72 2.664-12.24 0-5.52-.888-9.6-2.664-12.24-1.728-2.64-4.128-3.96-7.2-3.96-3.024 0-5.424 1.32-7.2 3.96-1.728 2.64-2.592 6.72-2.592 12.24 0 5.52.864 9.6 2.592 12.24 1.776 2.64 4.176 3.96 7.2 3.96zm66.442-41.4v7.56L223.896 632h-12.672l18.072-40.896h-16.704v8.208h-10.368V581.6h40.392zm-67.919 209.264c-4.176 0-7.896-1.032-11.16-3.096-3.264-2.064-5.832-5.04-7.704-8.928-1.824-3.936-2.736-8.616-2.736-14.04 0-5.424.912-10.08 2.736-13.968 1.872-3.936 4.44-6.936 7.704-9 3.264-2.064 6.984-3.096 11.16-3.096s7.896 1.032 11.16 3.096c3.264 2.064 5.808 5.064 7.632 9 1.872 3.888 2.808 8.544 2.808 13.968 0 5.424-.936 10.104-2.808 14.04-1.824 3.888-4.368 6.864-7.632 8.928-3.264 2.064-6.984 3.096-11.16 3.096zm0-9.864c3.072 0 5.472-1.32 7.2-3.96 1.776-2.64 2.664-6.72 2.664-12.24 0-5.52-.888-9.6-2.664-12.24-1.728-2.64-4.128-3.96-7.2-3.96-3.024 0-5.424 1.32-7.2 3.96-1.728 2.64-2.592 6.72-2.592 12.24 0 5.52.864 9.6 2.592 12.24 1.776 2.64 4.176 3.96 7.2 3.96zm44.979-42.264c7.056 0 12.576 2.16 16.56 6.48 3.984 4.272 5.976 10.44 5.976 18.504 0 5.712-1.08 10.608-3.24 14.688-2.112 4.08-5.112 7.176-9 9.288s-8.376 3.168-13.464 3.168c-2.688 0-5.256-.288-7.704-.864-2.448-.624-4.536-1.488-6.264-2.592l4.32-8.568c2.448 1.68 5.592 2.52 9.432 2.52 4.272 0 7.656-1.248 10.152-3.744 2.496-2.544 3.84-6.192 4.032-10.944-3.024 3.024-7.2 4.536-12.528 4.536-3.216 0-6.144-.648-8.784-1.944-2.64-1.296-4.728-3.12-6.264-5.472-1.536-2.4-2.304-5.16-2.304-8.28 0-3.36.84-6.312 2.52-8.856 1.68-2.544 3.96-4.488 6.84-5.832 2.928-1.392 6.168-2.088 9.72-2.088zm.864 23.76c2.544 0 4.608-.696 6.192-2.088 1.632-1.44 2.448-3.264 2.448-5.472 0-2.208-.792-4.008-2.376-5.4-1.536-1.392-3.672-2.088-6.408-2.088-2.496 0-4.536.672-6.12 2.016-1.536 1.344-2.304 3.168-2.304 5.472 0 2.304.768 4.152 2.304 5.544 1.584 1.344 3.672 2.016 6.264 2.016zM215.857 911.6V962h-11.664v-41.04h-10.08v-9.36h21.744zm28.196 0V962h-11.664v-41.04h-10.08v-9.36h21.744z" fill="#E6E7FF" fill-opacity=".4"/></svg>