<svg width="26" height="26" fill="none" xmlns="http://www.w3.org/2000/svg"><circle cx="13" cy="13" r="13" fill="#F42D2D"/><g clip-path="url(#clip0)"><path d="M19.146 16.04l-1.814-1.813c-.648-.648-1.75-.39-2.009.453-.194.583-.842.907-1.425.778-1.296-.324-3.045-2.009-3.37-3.37-.194-.583.195-1.23.778-1.425.843-.26 1.102-1.36.454-2.009L9.946 6.84c-.519-.453-1.296-.453-1.75 0l-1.23 1.231c-1.232 1.296.129 4.73 3.174 7.775 3.045 3.046 6.48 4.471 7.775 3.175l1.231-1.23c.454-.52.454-1.297 0-1.75z" fill="#fff"/></g><defs><clipPath id="clip0"><path fill="#fff" transform="translate(6.5 6.5)" d="M0 0h13v13H0z"/></clipPath></defs></svg>