<svg width="609" height="811" fill="none" xmlns="http://www.w3.org/2000/svg"><path d="M173.906 96.176c-5.684 0-10.748-1.405-15.19-4.214-4.443-2.81-7.938-6.86-10.486-12.152-2.483-5.357-3.724-11.727-3.724-19.11 0-7.383 1.241-13.72 3.724-19.012 2.548-5.357 6.043-9.44 10.486-12.25 4.442-2.81 9.506-4.214 15.19-4.214 5.684 0 10.747 1.405 15.19 4.214 4.442 2.81 7.905 6.893 10.388 12.25 2.548 5.292 3.822 11.63 3.822 19.012 0 7.383-1.274 13.753-3.822 19.11-2.483 5.292-5.946 9.343-10.388 12.152-4.443 2.81-9.506 4.214-15.19 4.214zm0-13.426c4.181 0 7.448-1.797 9.8-5.39 2.417-3.593 3.626-9.147 3.626-16.66s-1.209-13.067-3.626-16.66c-2.352-3.593-5.619-5.39-9.8-5.39-4.116 0-7.383 1.797-9.8 5.39-2.352 3.593-3.528 9.147-3.528 16.66s1.176 13.067 3.528 16.66c2.417 3.593 5.684 5.39 9.8 5.39zm62.999-56.35V95h-15.876V39.14h-13.72V26.4h29.596zm160.317 121.776c-5.684 0-10.747-1.405-15.19-4.214s-7.938-6.86-10.486-12.152c-2.483-5.357-3.724-11.727-3.724-19.11 0-7.383 1.241-13.72 3.724-19.012 2.548-5.357 6.043-9.44 10.486-12.25 4.443-2.81 9.506-4.214 15.19-4.214 5.684 0 10.747 1.405 15.19 4.214 4.443 2.81 7.905 6.893 10.388 12.25 2.548 5.292 3.822 11.629 3.822 19.012 0 7.383-1.274 13.753-3.822 19.11-2.483 5.292-5.945 9.343-10.388 12.152-4.443 2.809-9.506 4.214-15.19 4.214zm0-13.426c4.181 0 7.448-1.797 9.8-5.39 2.417-3.593 3.626-9.147 3.626-16.66s-1.209-13.067-3.626-16.66c-2.352-3.593-5.619-5.39-9.8-5.39-4.116 0-7.383 1.797-9.8 5.39-2.352 3.593-3.528 9.147-3.528 16.66s1.176 13.067 3.528 16.66c2.417 3.593 5.684 5.39 9.8 5.39zm87.793-.686V147h-51.842v-10.29l26.46-24.99c2.81-2.679 4.704-4.965 5.684-6.86.98-1.96 1.47-3.887 1.47-5.782 0-2.744-.947-4.835-2.842-6.272-1.829-1.503-4.54-2.254-8.134-2.254-3.005 0-5.716.588-8.134 1.764-2.417 1.11-4.442 2.81-6.076 5.096l-11.564-7.448c2.679-3.985 6.37-7.089 11.074-9.31 4.704-2.287 10.094-3.43 16.17-3.43 5.096 0 9.539.85 13.328 2.548 3.855 1.633 6.828 3.985 8.918 7.056 2.156 3.005 3.234 6.566 3.234 10.682 0 3.724-.784 7.219-2.352 10.486-1.568 3.267-4.606 6.991-9.114 11.172l-15.778 14.896h29.498zm-87.793 162.112c-5.684 0-10.747-1.405-15.19-4.214s-7.938-6.86-10.486-12.152c-2.483-5.357-3.724-11.727-3.724-19.11 0-7.383 1.241-13.72 3.724-19.012 2.548-5.357 6.043-9.441 10.486-12.25 4.443-2.809 9.506-4.214 15.19-4.214 5.684 0 10.747 1.405 15.19 4.214s7.905 6.893 10.388 12.25c2.548 5.292 3.822 11.629 3.822 19.012 0 7.383-1.274 13.753-3.822 19.11-2.483 5.292-5.945 9.343-10.388 12.152-4.443 2.809-9.506 4.214-15.19 4.214zm0-13.426c4.181 0 7.448-1.797 9.8-5.39 2.417-3.593 3.626-9.147 3.626-16.66s-1.209-13.067-3.626-16.66c-2.352-3.593-5.619-5.39-9.8-5.39-4.116 0-7.383 1.797-9.8 5.39-2.352 3.593-3.528 9.147-3.528 16.66s1.176 13.067 3.528 16.66c2.417 3.593 5.684 5.39 9.8 5.39zm99.932-2.156h-11.172V295h-15.484v-14.406h-36.946v-10.682l32.34-43.512h16.66l-29.988 41.258h18.424V254.82h14.994v12.838h11.172v12.936zm-99.932 191.582c-5.684 0-10.747-1.405-15.19-4.214s-7.938-6.86-10.486-12.152c-2.483-5.357-3.724-11.727-3.724-19.11 0-7.383 1.241-13.72 3.724-19.012 2.548-5.357 6.043-9.441 10.486-12.25 4.443-2.809 9.506-4.214 15.19-4.214 5.684 0 10.747 1.405 15.19 4.214s7.905 6.893 10.388 12.25c2.548 5.292 3.822 11.629 3.822 19.012 0 7.383-1.274 13.753-3.822 19.11-2.483 5.292-5.945 9.343-10.388 12.152-4.443 2.809-9.506 4.214-15.19 4.214zm0-13.426c4.181 0 7.448-1.797 9.8-5.39 2.417-3.593 3.626-9.147 3.626-16.66s-1.209-13.067-3.626-16.66c-2.352-3.593-5.619-5.39-9.8-5.39-4.116 0-7.383 1.797-9.8 5.39-2.352 3.593-3.528 9.147-3.528 16.66s1.176 13.067 3.528 16.66c2.417 3.593 5.684 5.39 9.8 5.39zm70.14-30.772c4.377 0 8.362.882 11.956 2.646 3.593 1.764 6.435 4.279 8.526 7.546 2.09 3.201 3.136 6.925 3.136 11.172 0 4.573-1.144 8.591-3.43 12.054-2.287 3.463-5.423 6.141-9.408 8.036-3.92 1.829-8.298 2.744-13.132 2.744-9.604 0-17.118-2.94-22.54-8.82-5.423-5.88-8.134-14.275-8.134-25.186 0-7.775 1.47-14.439 4.41-19.992 2.94-5.553 7.023-9.767 12.25-12.642 5.292-2.875 11.4-4.312 18.326-4.312 3.658 0 7.154.425 10.486 1.274 3.397.784 6.272 1.927 8.624 3.43l-5.88 11.662c-3.398-2.287-7.677-3.43-12.838-3.43-5.815 0-10.421 1.699-13.818 5.096-3.398 3.397-5.227 8.33-5.488 14.798 4.05-4.051 9.702-6.076 16.954-6.076zm-3.234 32.34c3.397 0 6.141-.915 8.232-2.744 2.156-1.829 3.234-4.312 3.234-7.448s-1.078-5.619-3.234-7.448c-2.091-1.895-4.9-2.842-8.428-2.842-3.463 0-6.305.98-8.526 2.94-2.222 1.895-3.332 4.345-3.332 7.35s1.078 5.455 3.234 7.35c2.156 1.895 5.096 2.842 8.82 2.842zm-66.906 129.858c-5.684 0-10.747-1.405-15.19-4.214s-7.938-6.86-10.486-12.152c-2.483-5.357-3.724-11.727-3.724-19.11 0-7.383 1.241-13.72 3.724-19.012 2.548-5.357 6.043-9.441 10.486-12.25 4.443-2.809 9.506-4.214 15.19-4.214 5.684 0 10.747 1.405 15.19 4.214s7.905 6.893 10.388 12.25c2.548 5.292 3.822 11.629 3.822 19.012 0 7.383-1.274 13.753-3.822 19.11-2.483 5.292-5.945 9.343-10.388 12.152-4.443 2.809-9.506 4.214-15.19 4.214zm0-13.426c4.181 0 7.448-1.797 9.8-5.39 2.417-3.593 3.626-9.147 3.626-16.66s-1.209-13.067-3.626-16.66c-2.352-3.593-5.619-5.39-9.8-5.39-4.116 0-7.383 1.797-9.8 5.39-2.352 3.593-3.528 9.147-3.528 16.66s1.176 13.067 3.528 16.66c2.417 3.593 5.684 5.39 9.8 5.39zm84.056-23.814c3.397 1.699 5.978 3.92 7.742 6.664 1.829 2.744 2.744 5.913 2.744 9.506 0 4.247-1.209 7.971-3.626 11.172-2.418 3.136-5.815 5.586-10.192 7.35-4.378 1.699-9.441 2.548-15.19 2.548-5.75 0-10.813-.849-15.19-2.548-4.312-1.764-7.677-4.214-10.094-7.35-2.352-3.201-3.528-6.925-3.528-11.172 0-3.593.882-6.762 2.646-9.506 1.829-2.744 4.41-4.965 7.742-6.664-2.548-1.568-4.508-3.528-5.88-5.88-1.372-2.417-2.058-5.161-2.058-8.232 0-3.985 1.11-7.448 3.332-10.388 2.221-2.94 5.324-5.194 9.31-6.762 3.985-1.633 8.558-2.45 13.72-2.45 5.226 0 9.832.817 13.818 2.45 4.05 1.568 7.186 3.822 9.408 6.762 2.221 2.94 3.332 6.403 3.332 10.388 0 3.071-.686 5.815-2.058 8.232-1.372 2.352-3.365 4.312-5.978 5.88zm-18.522-22.05c-3.202 0-5.782.784-7.742 2.352-1.895 1.503-2.842 3.593-2.842 6.272 0 2.613.947 4.671 2.842 6.174 1.894 1.503 4.475 2.254 7.742 2.254 3.266 0 5.88-.751 7.84-2.254 1.96-1.503 2.94-3.561 2.94-6.174 0-2.679-.98-4.769-2.94-6.272-1.96-1.568-4.574-2.352-7.84-2.352zm0 47.628c3.985 0 7.121-.882 9.408-2.646 2.352-1.829 3.528-4.247 3.528-7.252s-1.176-5.39-3.528-7.154c-2.287-1.764-5.423-2.646-9.408-2.646-3.92 0-7.024.882-9.31 2.646-2.287 1.764-3.43 4.149-3.43 7.154 0 3.071 1.143 5.488 3.43 7.252 2.286 1.764 5.39 2.646 9.31 2.646zM394.282 666.4V735h-15.876v-55.86h-13.72V666.4h29.596zm41.317 69.776c-5.684 0-10.747-1.405-15.19-4.214s-7.938-6.86-10.486-12.152c-2.483-5.357-3.724-11.727-3.724-19.11 0-7.383 1.241-13.72 3.724-19.012 2.548-5.357 6.043-9.441 10.486-12.25 4.443-2.809 9.506-4.214 15.19-4.214 5.684 0 10.747 1.405 15.19 4.214s7.905 6.893 10.388 12.25c2.548 5.292 3.822 11.629 3.822 19.012 0 7.383-1.274 13.753-3.822 19.11-2.483 5.292-5.945 9.343-10.388 12.152-4.443 2.809-9.506 4.214-15.19 4.214zm0-13.426c4.181 0 7.448-1.797 9.8-5.39 2.417-3.593 3.626-9.147 3.626-16.66s-1.209-13.067-3.626-16.66c-2.352-3.593-5.619-5.39-9.8-5.39-4.116 0-7.383 1.797-9.8 5.39-2.352 3.593-3.528 9.147-3.528 16.66s1.176 13.067 3.528 16.66c2.417 3.593 5.684 5.39 9.8 5.39zm-280.93-491.574c-5.684 0-10.747-1.405-15.19-4.214-4.442-2.809-7.938-6.86-10.486-12.152-2.482-5.357-3.724-11.727-3.724-19.11 0-7.383 1.242-13.72 3.724-19.012 2.548-5.357 6.044-9.441 10.486-12.25 4.443-2.809 9.506-4.214 15.19-4.214 5.684 0 10.748 1.405 15.19 4.214 4.443 2.809 7.906 6.893 10.388 12.25 2.548 5.292 3.822 11.629 3.822 19.012 0 7.383-1.274 13.753-3.822 19.11-2.482 5.292-5.945 9.343-10.388 12.152-4.442 2.809-9.506 4.214-15.19 4.214zm0-13.426c4.182 0 7.448-1.797 9.8-5.39 2.418-3.593 3.626-9.147 3.626-16.66s-1.208-13.067-3.626-16.66c-2.352-3.593-5.618-5.39-9.8-5.39-4.116 0-7.382 1.797-9.8 5.39-2.352 3.593-3.528 9.147-3.528 16.66s1.176 13.067 3.528 16.66c2.418 3.593 5.684 5.39 9.8 5.39zm68.203-28.42c6.011.98 10.617 3.234 13.818 6.762 3.201 3.463 4.802 7.775 4.802 12.936 0 3.985-1.045 7.677-3.136 11.074-2.091 3.332-5.292 6.011-9.604 8.036-4.247 2.025-9.473 3.038-15.68 3.038a55.86 55.86 0 01-14.308-1.862c-4.639-1.307-8.591-3.136-11.858-5.488l6.174-12.152c2.613 1.96 5.619 3.495 9.016 4.606a36.444 36.444 0 0010.584 1.568c3.985 0 7.121-.751 9.408-2.254 2.287-1.568 3.43-3.757 3.43-6.566 0-5.619-4.279-8.428-12.838-8.428h-7.252v-10.486l14.112-15.974h-29.204V161.4h48.02v10.29l-15.484 17.64zm-69.447 177.846c-5.684 0-10.747-1.405-15.19-4.214s-7.938-6.86-10.486-12.152c-2.483-5.357-3.724-11.727-3.724-19.11 0-7.383 1.241-13.72 3.724-19.012 2.548-5.357 6.043-9.441 10.486-12.25 4.443-2.809 9.506-4.214 15.19-4.214 5.684 0 10.747 1.405 15.19 4.214s7.905 6.893 10.388 12.25c2.548 5.292 3.822 11.629 3.822 19.012 0 7.383-1.274 13.753-3.822 19.11-2.483 5.292-5.945 9.343-10.388 12.152-4.443 2.809-9.506 4.214-15.19 4.214zm0-13.426c4.181 0 7.448-1.797 9.8-5.39 2.417-3.593 3.626-9.147 3.626-16.66s-1.209-13.067-3.626-16.66c-2.352-3.593-5.619-5.39-9.8-5.39-4.116 0-7.383 1.797-9.8 5.39-2.352 3.593-3.528 9.147-3.528 16.66s1.176 13.067 3.528 16.66c2.417 3.593 5.684 5.39 9.8 5.39zm60.634-30.576c9.669 0 16.79 1.927 21.364 5.782 4.638 3.855 6.958 9.016 6.958 15.484 0 4.181-1.046 8.003-3.136 11.466-2.091 3.397-5.292 6.141-9.604 8.232-4.247 2.025-9.506 3.038-15.778 3.038a55.86 55.86 0 01-14.308-1.862c-4.639-1.307-8.592-3.136-11.858-5.488l6.272-12.152c2.613 1.96 5.618 3.495 9.016 4.606a35.462 35.462 0 0010.486 1.568c3.985 0 7.121-.784 9.408-2.352 2.286-1.568 3.43-3.757 3.43-6.566 0-2.94-1.209-5.161-3.626-6.664-2.352-1.503-6.468-2.254-12.348-2.254h-17.542l3.528-38.612h41.846v12.74h-28.616l-1.078 13.034h5.586zM151.32 539.176c-5.684 0-10.748-1.405-15.19-4.214-4.443-2.809-7.938-6.86-10.486-12.152-2.483-5.357-3.724-11.727-3.724-19.11 0-7.383 1.241-13.72 3.724-19.012 2.548-5.357 6.043-9.441 10.486-12.25 4.442-2.809 9.506-4.214 15.19-4.214 5.684 0 10.747 1.405 15.19 4.214 4.442 2.809 7.905 6.893 10.388 12.25 2.548 5.292 3.822 11.629 3.822 19.012 0 7.383-1.274 13.753-3.822 19.11-2.483 5.292-5.946 9.343-10.388 12.152-4.443 2.809-9.506 4.214-15.19 4.214zm0-13.426c4.181 0 7.448-1.797 9.8-5.39 2.417-3.593 3.626-9.147 3.626-16.66s-1.209-13.067-3.626-16.66c-2.352-3.593-5.619-5.39-9.8-5.39-4.116 0-7.383 1.797-9.8 5.39-2.352 3.593-3.528 9.147-3.528 16.66s1.176 13.067 3.528 16.66c2.417 3.593 5.684 5.39 9.8 5.39zm90.435-56.35v10.29L216.275 538h-17.248l24.598-55.664h-22.736v11.172h-14.112V469.4h54.978zM149.31 674.176c-5.684 0-10.747-1.405-15.19-4.214s-7.938-6.86-10.486-12.152c-2.483-5.357-3.724-11.727-3.724-19.11 0-7.383 1.241-13.72 3.724-19.012 2.548-5.357 6.043-9.441 10.486-12.25 4.443-2.809 9.506-4.214 15.19-4.214 5.684 0 10.747 1.405 15.19 4.214s7.905 6.893 10.388 12.25c2.548 5.292 3.822 11.629 3.822 19.012 0 7.383-1.274 13.753-3.822 19.11-2.483 5.292-5.945 9.343-10.388 12.152-4.443 2.809-9.506 4.214-15.19 4.214zm0-13.426c4.181 0 7.448-1.797 9.8-5.39 2.417-3.593 3.626-9.147 3.626-16.66s-1.209-13.067-3.626-16.66c-2.352-3.593-5.619-5.39-9.8-5.39-4.116 0-7.383 1.797-9.8 5.39-2.352 3.593-3.528 9.147-3.528 16.66s1.176 13.067 3.528 16.66c2.417 3.593 5.684 5.39 9.8 5.39zm61.222-57.526c9.604 0 17.117 2.94 22.54 8.82 5.422 5.815 8.134 14.21 8.134 25.186 0 7.775-1.47 14.439-4.41 19.992-2.875 5.553-6.958 9.767-12.25 12.642s-11.401 4.312-18.326 4.312c-3.659 0-7.154-.392-10.486-1.176-3.332-.849-6.174-2.025-8.526-3.528l5.88-11.662c3.332 2.287 7.611 3.43 12.838 3.43 5.814 0 10.42-1.699 13.818-5.096 3.397-3.463 5.226-8.428 5.488-14.896-4.116 4.116-9.8 6.174-17.052 6.174-4.378 0-8.363-.882-11.956-2.646-3.594-1.764-6.436-4.247-8.526-7.448-2.091-3.267-3.136-7.023-3.136-11.27 0-4.573 1.143-8.591 3.43-12.054 2.286-3.463 5.39-6.109 9.31-7.938 3.985-1.895 8.395-2.842 13.23-2.842zm1.176 32.34c3.462 0 6.272-.947 8.428-2.842 2.221-1.96 3.332-4.443 3.332-7.448 0-3.005-1.078-5.455-3.234-7.35-2.091-1.895-4.998-2.842-8.722-2.842-3.398 0-6.174.915-8.33 2.744-2.091 1.829-3.136 4.312-3.136 7.448s1.045 5.651 3.136 7.546c2.156 1.829 4.998 2.744 8.526 2.744zM198.528 742.4V811h-15.876v-55.86h-13.72V742.4h29.596zm38.377 0V811h-15.876v-55.86h-13.72V742.4h29.596z" fill="#E6E7FF" fill-opacity=".4"/><path stroke="#F42D2D" stroke-width="2" d="M306 60v718"/><path opacity=".7" d="M205 61h100" stroke="#F42D2D" stroke-width="2" stroke-dasharray="10 10"/><circle opacity=".2" cx="306" cy="60" r="9" fill="#F42D2D"/><circle cx="306" cy="60" r="5" fill="#F42D2D"/><circle opacity=".2" cx="306" cy="110" r="9" fill="#F42D2D"/><circle cx="306" cy="110" r="5" fill="#F42D2D"/><circle opacity=".2" cx="306" cy="196" r="9" fill="#F42D2D"/><circle cx="306" cy="196" r="5" fill="#F42D2D"/><circle opacity=".2" cx="306" cy="260" r="9" fill="#F42D2D"/><circle cx="306" cy="260" r="5" fill="#F42D2D"/><circle opacity=".2" cx="306" cy="333" r="9" fill="#F42D2D"/><circle cx="306" cy="333" r="5" fill="#F42D2D"/><circle opacity=".2" cx="306" cy="440" r="9" fill="#F42D2D"/><circle cx="306" cy="440" r="5" fill="#F42D2D"/><circle opacity=".2" cx="306" cy="504" r="9" fill="#F42D2D"/><circle cx="306" cy="504" r="5" fill="#F42D2D"/><circle opacity=".2" cx="306" cy="555" r="9" fill="#F42D2D"/><circle cx="306" cy="555" r="5" fill="#F42D2D"/><circle opacity=".2" cx="306" cy="640" r="9" fill="#F42D2D"/><circle cx="306" cy="640" r="5" fill="#F42D2D"/><circle opacity=".2" cx="306" cy="702" r="9" fill="#F42D2D"/><circle cx="306" cy="702" r="5" fill="#F42D2D"/><circle opacity=".2" cx="306" cy="777" r="19" fill="#F42D2D"/><circle cx="306" cy="777" r="5" fill="#F42D2D"/><path opacity=".7" d="M205 196h100M205 333h100M205 504h100m1-64h100M306 555h100M306 702h100m-202-62h100M204 777h100m2-517h100M306 110h100" stroke="#F42D2D" stroke-width="2" stroke-dasharray="10 10"/></svg>