<svg width="609" height="811" viewBox="0 0 609 811" fill="none" xmlns="http://www.w3.org/2000/svg">
<path d="M173.906 96.176C168.222 96.176 163.158 94.7713 158.716 91.962C154.273 89.1527 150.778 85.102 148.23 79.81C145.747 74.4527 144.506 68.0827 144.506 60.7C144.506 53.3173 145.747 46.98 148.23 41.688C150.778 36.3307 154.273 32.2473 158.716 29.438C163.158 26.6287 168.222 25.224 173.906 25.224C179.59 25.224 184.653 26.6287 189.096 29.438C193.538 32.2473 197.001 36.3307 199.484 41.688C202.032 46.98 203.306 53.3173 203.306 60.7C203.306 68.0827 202.032 74.4527 199.484 79.81C197.001 85.102 193.538 89.1527 189.096 91.962C184.653 94.7713 179.59 96.176 173.906 96.176ZM173.906 82.75C178.087 82.75 181.354 80.9533 183.706 77.36C186.123 73.7667 187.332 68.2133 187.332 60.7C187.332 53.1867 186.123 47.6333 183.706 44.04C181.354 40.4467 178.087 38.65 173.906 38.65C169.79 38.65 166.523 40.4467 164.106 44.04C161.754 47.6333 160.578 53.1867 160.578 60.7C160.578 68.2133 161.754 73.7667 164.106 77.36C166.523 80.9533 169.79 82.75 173.906 82.75ZM236.905 26.4V95H221.029V39.14H207.309V26.4H236.905Z" fill="#E6E7FF" fill-opacity="0.4"/>
<path d="M397.222 148.176C391.538 148.176 386.475 146.771 382.032 143.962C377.589 141.153 374.094 137.102 371.546 131.81C369.063 126.453 367.822 120.083 367.822 112.7C367.822 105.317 369.063 98.98 371.546 93.688C374.094 88.3307 377.589 84.2473 382.032 81.438C386.475 78.6287 391.538 77.224 397.222 77.224C402.906 77.224 407.969 78.6287 412.412 81.438C416.855 84.2473 420.317 88.3307 422.8 93.688C425.348 98.98 426.622 105.317 426.622 112.7C426.622 120.083 425.348 126.453 422.8 131.81C420.317 137.102 416.855 141.153 412.412 143.962C407.969 146.771 402.906 148.176 397.222 148.176ZM397.222 134.75C401.403 134.75 404.67 132.953 407.022 129.36C409.439 125.767 410.648 120.213 410.648 112.7C410.648 105.187 409.439 99.6333 407.022 96.04C404.67 92.4467 401.403 90.65 397.222 90.65C393.106 90.65 389.839 92.4467 387.422 96.04C385.07 99.6333 383.894 105.187 383.894 112.7C383.894 120.213 385.07 125.767 387.422 129.36C389.839 132.953 393.106 134.75 397.222 134.75ZM485.015 134.064V147H433.173V136.71L459.633 111.72C462.443 109.041 464.337 106.755 465.317 104.86C466.297 102.9 466.787 100.973 466.787 99.078C466.787 96.334 465.84 94.2433 463.945 92.806C462.116 91.3033 459.405 90.552 455.811 90.552C452.806 90.552 450.095 91.14 447.677 92.316C445.26 93.4267 443.235 95.1253 441.601 97.412L430.037 89.964C432.716 85.9787 436.407 82.8753 441.111 80.654C445.815 78.3673 451.205 77.224 457.281 77.224C462.377 77.224 466.82 78.0733 470.609 79.772C474.464 81.4053 477.437 83.7573 479.527 86.828C481.683 89.8333 482.761 93.394 482.761 97.51C482.761 101.234 481.977 104.729 480.409 107.996C478.841 111.263 475.803 114.987 471.295 119.168L455.517 134.064H485.015Z" fill="#E6E7FF" fill-opacity="0.4"/>
<path d="M397.222 296.176C391.538 296.176 386.475 294.771 382.032 291.962C377.589 289.153 374.094 285.102 371.546 279.81C369.063 274.453 367.822 268.083 367.822 260.7C367.822 253.317 369.063 246.98 371.546 241.688C374.094 236.331 377.589 232.247 382.032 229.438C386.475 226.629 391.538 225.224 397.222 225.224C402.906 225.224 407.969 226.629 412.412 229.438C416.855 232.247 420.317 236.331 422.8 241.688C425.348 246.98 426.622 253.317 426.622 260.7C426.622 268.083 425.348 274.453 422.8 279.81C420.317 285.102 416.855 289.153 412.412 291.962C407.969 294.771 402.906 296.176 397.222 296.176ZM397.222 282.75C401.403 282.75 404.67 280.953 407.022 277.36C409.439 273.767 410.648 268.213 410.648 260.7C410.648 253.187 409.439 247.633 407.022 244.04C404.67 240.447 401.403 238.65 397.222 238.65C393.106 238.65 389.839 240.447 387.422 244.04C385.07 247.633 383.894 253.187 383.894 260.7C383.894 268.213 385.07 273.767 387.422 277.36C389.839 280.953 393.106 282.75 397.222 282.75ZM497.154 280.594H485.982V295H470.498V280.594H433.552V269.912L465.892 226.4H482.552L452.564 267.658H470.988V254.82H485.982V267.658H497.154V280.594Z" fill="#E6E7FF" fill-opacity="0.4"/>
<path d="M397.222 472.176C391.538 472.176 386.475 470.771 382.032 467.962C377.589 465.153 374.094 461.102 371.546 455.81C369.063 450.453 367.822 444.083 367.822 436.7C367.822 429.317 369.063 422.98 371.546 417.688C374.094 412.331 377.589 408.247 382.032 405.438C386.475 402.629 391.538 401.224 397.222 401.224C402.906 401.224 407.969 402.629 412.412 405.438C416.855 408.247 420.317 412.331 422.8 417.688C425.348 422.98 426.622 429.317 426.622 436.7C426.622 444.083 425.348 450.453 422.8 455.81C420.317 461.102 416.855 465.153 412.412 467.962C407.969 470.771 402.906 472.176 397.222 472.176ZM397.222 458.75C401.403 458.75 404.67 456.953 407.022 453.36C409.439 449.767 410.648 444.213 410.648 436.7C410.648 429.187 409.439 423.633 407.022 420.04C404.67 416.447 401.403 414.65 397.222 414.65C393.106 414.65 389.839 416.447 387.422 420.04C385.07 423.633 383.894 429.187 383.894 436.7C383.894 444.213 385.07 449.767 387.422 453.36C389.839 456.953 393.106 458.75 397.222 458.75ZM467.362 427.978C471.739 427.978 475.724 428.86 479.318 430.624C482.911 432.388 485.753 434.903 487.844 438.17C489.934 441.371 490.98 445.095 490.98 449.342C490.98 453.915 489.836 457.933 487.55 461.396C485.263 464.859 482.127 467.537 478.142 469.432C474.222 471.261 469.844 472.176 465.01 472.176C455.406 472.176 447.892 469.236 442.47 463.356C437.047 457.476 434.336 449.081 434.336 438.17C434.336 430.395 435.806 423.731 438.746 418.178C441.686 412.625 445.769 408.411 450.996 405.536C456.288 402.661 462.396 401.224 469.322 401.224C472.98 401.224 476.476 401.649 479.808 402.498C483.205 403.282 486.08 404.425 488.432 405.928L482.552 417.59C479.154 415.303 474.875 414.16 469.714 414.16C463.899 414.16 459.293 415.859 455.896 419.256C452.498 422.653 450.669 427.586 450.408 434.054C454.458 430.003 460.11 427.978 467.362 427.978ZM464.128 460.318C467.525 460.318 470.269 459.403 472.36 457.574C474.516 455.745 475.594 453.262 475.594 450.126C475.594 446.99 474.516 444.507 472.36 442.678C470.269 440.783 467.46 439.836 463.932 439.836C460.469 439.836 457.627 440.816 455.406 442.776C453.184 444.671 452.074 447.121 452.074 450.126C452.074 453.131 453.152 455.581 455.308 457.476C457.464 459.371 460.404 460.318 464.128 460.318Z" fill="#E6E7FF" fill-opacity="0.4"/>
<path d="M397.222 590.176C391.538 590.176 386.475 588.771 382.032 585.962C377.589 583.153 374.094 579.102 371.546 573.81C369.063 568.453 367.822 562.083 367.822 554.7C367.822 547.317 369.063 540.98 371.546 535.688C374.094 530.331 377.589 526.247 382.032 523.438C386.475 520.629 391.538 519.224 397.222 519.224C402.906 519.224 407.969 520.629 412.412 523.438C416.855 526.247 420.317 530.331 422.8 535.688C425.348 540.98 426.622 547.317 426.622 554.7C426.622 562.083 425.348 568.453 422.8 573.81C420.317 579.102 416.855 583.153 412.412 585.962C407.969 588.771 402.906 590.176 397.222 590.176ZM397.222 576.75C401.403 576.75 404.67 574.953 407.022 571.36C409.439 567.767 410.648 562.213 410.648 554.7C410.648 547.187 409.439 541.633 407.022 538.04C404.67 534.447 401.403 532.65 397.222 532.65C393.106 532.65 389.839 534.447 387.422 538.04C385.07 541.633 383.894 547.187 383.894 554.7C383.894 562.213 385.07 567.767 387.422 571.36C389.839 574.953 393.106 576.75 397.222 576.75ZM481.278 552.936C484.675 554.635 487.256 556.856 489.02 559.6C490.849 562.344 491.764 565.513 491.764 569.106C491.764 573.353 490.555 577.077 488.138 580.278C485.72 583.414 482.323 585.864 477.946 587.628C473.568 589.327 468.505 590.176 462.756 590.176C457.006 590.176 451.943 589.327 447.566 587.628C443.254 585.864 439.889 583.414 437.472 580.278C435.12 577.077 433.944 573.353 433.944 569.106C433.944 565.513 434.826 562.344 436.59 559.6C438.419 556.856 441 554.635 444.332 552.936C441.784 551.368 439.824 549.408 438.452 547.056C437.08 544.639 436.394 541.895 436.394 538.824C436.394 534.839 437.504 531.376 439.726 528.436C441.947 525.496 445.05 523.242 449.036 521.674C453.021 520.041 457.594 519.224 462.756 519.224C467.982 519.224 472.588 520.041 476.574 521.674C480.624 523.242 483.76 525.496 485.982 528.436C488.203 531.376 489.314 534.839 489.314 538.824C489.314 541.895 488.628 544.639 487.256 547.056C485.884 549.408 483.891 551.368 481.278 552.936ZM462.756 530.886C459.554 530.886 456.974 531.67 455.014 533.238C453.119 534.741 452.172 536.831 452.172 539.51C452.172 542.123 453.119 544.181 455.014 545.684C456.908 547.187 459.489 547.938 462.756 547.938C466.022 547.938 468.636 547.187 470.596 545.684C472.556 544.181 473.536 542.123 473.536 539.51C473.536 536.831 472.556 534.741 470.596 533.238C468.636 531.67 466.022 530.886 462.756 530.886ZM462.756 578.514C466.741 578.514 469.877 577.632 472.164 575.868C474.516 574.039 475.692 571.621 475.692 568.616C475.692 565.611 474.516 563.226 472.164 561.462C469.877 559.698 466.741 558.816 462.756 558.816C458.836 558.816 455.732 559.698 453.446 561.462C451.159 563.226 450.016 565.611 450.016 568.616C450.016 571.687 451.159 574.104 453.446 575.868C455.732 577.632 458.836 578.514 462.756 578.514Z" fill="#E6E7FF" fill-opacity="0.4"/>
<path d="M394.282 666.4V735H378.406V679.14H364.686V666.4H394.282ZM435.599 736.176C429.915 736.176 424.852 734.771 420.409 731.962C415.966 729.153 412.471 725.102 409.923 719.81C407.44 714.453 406.199 708.083 406.199 700.7C406.199 693.317 407.44 686.98 409.923 681.688C412.471 676.331 415.966 672.247 420.409 669.438C424.852 666.629 429.915 665.224 435.599 665.224C441.283 665.224 446.346 666.629 450.789 669.438C455.232 672.247 458.694 676.331 461.177 681.688C463.725 686.98 464.999 693.317 464.999 700.7C464.999 708.083 463.725 714.453 461.177 719.81C458.694 725.102 455.232 729.153 450.789 731.962C446.346 734.771 441.283 736.176 435.599 736.176ZM435.599 722.75C439.78 722.75 443.047 720.953 445.399 717.36C447.816 713.767 449.025 708.213 449.025 700.7C449.025 693.187 447.816 687.633 445.399 684.04C443.047 680.447 439.78 678.65 435.599 678.65C431.483 678.65 428.216 680.447 425.799 684.04C423.447 687.633 422.271 693.187 422.271 700.7C422.271 708.213 423.447 713.767 425.799 717.36C428.216 720.953 431.483 722.75 435.599 722.75Z" fill="#E6E7FF" fill-opacity="0.4"/>
<path d="M154.669 231.176C148.985 231.176 143.922 229.771 139.479 226.962C135.037 224.153 131.541 220.102 128.993 214.81C126.511 209.453 125.269 203.083 125.269 195.7C125.269 188.317 126.511 181.98 128.993 176.688C131.541 171.331 135.037 167.247 139.479 164.438C143.922 161.629 148.985 160.224 154.669 160.224C160.353 160.224 165.417 161.629 169.859 164.438C174.302 167.247 177.765 171.331 180.247 176.688C182.795 181.98 184.069 188.317 184.069 195.7C184.069 203.083 182.795 209.453 180.247 214.81C177.765 220.102 174.302 224.153 169.859 226.962C165.417 229.771 160.353 231.176 154.669 231.176ZM154.669 217.75C158.851 217.75 162.117 215.953 164.469 212.36C166.887 208.767 168.095 203.213 168.095 195.7C168.095 188.187 166.887 182.633 164.469 179.04C162.117 175.447 158.851 173.65 154.669 173.65C150.553 173.65 147.287 175.447 144.869 179.04C142.517 182.633 141.341 188.187 141.341 195.7C141.341 203.213 142.517 208.767 144.869 212.36C147.287 215.953 150.553 217.75 154.669 217.75ZM222.872 189.33C228.883 190.31 233.489 192.564 236.69 196.092C239.891 199.555 241.492 203.867 241.492 209.028C241.492 213.013 240.447 216.705 238.356 220.102C236.265 223.434 233.064 226.113 228.752 228.138C224.505 230.163 219.279 231.176 213.072 231.176C208.237 231.176 203.468 230.555 198.764 229.314C194.125 228.007 190.173 226.178 186.906 223.826L193.08 211.674C195.693 213.634 198.699 215.169 202.096 216.28C205.559 217.325 209.087 217.848 212.68 217.848C216.665 217.848 219.801 217.097 222.088 215.594C224.375 214.026 225.518 211.837 225.518 209.028C225.518 203.409 221.239 200.6 212.68 200.6H205.428V190.114L219.54 174.14H190.336V161.4H238.356V171.69L222.872 189.33Z" fill="#E6E7FF" fill-opacity="0.4"/>
<path d="M153.425 367.176C147.741 367.176 142.678 365.771 138.235 362.962C133.792 360.153 130.297 356.102 127.749 350.81C125.266 345.453 124.025 339.083 124.025 331.7C124.025 324.317 125.266 317.98 127.749 312.688C130.297 307.331 133.792 303.247 138.235 300.438C142.678 297.629 147.741 296.224 153.425 296.224C159.109 296.224 164.172 297.629 168.615 300.438C173.058 303.247 176.52 307.331 179.003 312.688C181.551 317.98 182.825 324.317 182.825 331.7C182.825 339.083 181.551 345.453 179.003 350.81C176.52 356.102 173.058 360.153 168.615 362.962C164.172 365.771 159.109 367.176 153.425 367.176ZM153.425 353.75C157.606 353.75 160.873 351.953 163.225 348.36C165.642 344.767 166.851 339.213 166.851 331.7C166.851 324.187 165.642 318.633 163.225 315.04C160.873 311.447 157.606 309.65 153.425 309.65C149.309 309.65 146.042 311.447 143.625 315.04C141.273 318.633 140.097 324.187 140.097 331.7C140.097 339.213 141.273 344.767 143.625 348.36C146.042 351.953 149.309 353.75 153.425 353.75ZM214.059 323.174C223.728 323.174 230.849 325.101 235.423 328.956C240.061 332.811 242.381 337.972 242.381 344.44C242.381 348.621 241.335 352.443 239.245 355.906C237.154 359.303 233.953 362.047 229.641 364.138C225.394 366.163 220.135 367.176 213.863 367.176C209.028 367.176 204.259 366.555 199.555 365.314C194.916 364.007 190.963 362.178 187.697 359.826L193.969 347.674C196.582 349.634 199.587 351.169 202.985 352.28C206.382 353.325 209.877 353.848 213.471 353.848C217.456 353.848 220.592 353.064 222.879 351.496C225.165 349.928 226.309 347.739 226.309 344.93C226.309 341.99 225.1 339.769 222.683 338.266C220.331 336.763 216.215 336.012 210.335 336.012H192.793L196.321 297.4H238.167V310.14H209.551L208.473 323.174H214.059Z" fill="#E6E7FF" fill-opacity="0.4"/>
<path d="M151.32 539.176C145.636 539.176 140.572 537.771 136.13 534.962C131.687 532.153 128.192 528.102 125.644 522.81C123.161 517.453 121.92 511.083 121.92 503.7C121.92 496.317 123.161 489.98 125.644 484.688C128.192 479.331 131.687 475.247 136.13 472.438C140.572 469.629 145.636 468.224 151.32 468.224C157.004 468.224 162.067 469.629 166.51 472.438C170.952 475.247 174.415 479.331 176.898 484.688C179.446 489.98 180.72 496.317 180.72 503.7C180.72 511.083 179.446 517.453 176.898 522.81C174.415 528.102 170.952 532.153 166.51 534.962C162.067 537.771 157.004 539.176 151.32 539.176ZM151.32 525.75C155.501 525.75 158.768 523.953 161.12 520.36C163.537 516.767 164.746 511.213 164.746 503.7C164.746 496.187 163.537 490.633 161.12 487.04C158.768 483.447 155.501 481.65 151.32 481.65C147.204 481.65 143.937 483.447 141.52 487.04C139.168 490.633 137.992 496.187 137.992 503.7C137.992 511.213 139.168 516.767 141.52 520.36C143.937 523.953 147.204 525.75 151.32 525.75ZM241.755 469.4V479.69L216.275 538H199.027L223.625 482.336H200.889V493.508H186.777V469.4H241.755Z" fill="#E6E7FF" fill-opacity="0.4"/>
<path d="M149.31 674.176C143.626 674.176 138.563 672.771 134.12 669.962C129.677 667.153 126.182 663.102 123.634 657.81C121.151 652.453 119.91 646.083 119.91 638.7C119.91 631.317 121.151 624.98 123.634 619.688C126.182 614.331 129.677 610.247 134.12 607.438C138.563 604.629 143.626 603.224 149.31 603.224C154.994 603.224 160.057 604.629 164.5 607.438C168.943 610.247 172.405 614.331 174.888 619.688C177.436 624.98 178.71 631.317 178.71 638.7C178.71 646.083 177.436 652.453 174.888 657.81C172.405 663.102 168.943 667.153 164.5 669.962C160.057 672.771 154.994 674.176 149.31 674.176ZM149.31 660.75C153.491 660.75 156.758 658.953 159.11 655.36C161.527 651.767 162.736 646.213 162.736 638.7C162.736 631.187 161.527 625.633 159.11 622.04C156.758 618.447 153.491 616.65 149.31 616.65C145.194 616.65 141.927 618.447 139.51 622.04C137.158 625.633 135.982 631.187 135.982 638.7C135.982 646.213 137.158 651.767 139.51 655.36C141.927 658.953 145.194 660.75 149.31 660.75ZM210.532 603.224C220.136 603.224 227.649 606.164 233.072 612.044C238.494 617.859 241.206 626.254 241.206 637.23C241.206 645.005 239.736 651.669 236.796 657.222C233.921 662.775 229.838 666.989 224.546 669.864C219.254 672.739 213.145 674.176 206.22 674.176C202.561 674.176 199.066 673.784 195.734 673C192.402 672.151 189.56 670.975 187.208 669.472L193.088 657.81C196.42 660.097 200.699 661.24 205.926 661.24C211.74 661.24 216.346 659.541 219.744 656.144C223.141 652.681 224.97 647.716 225.232 641.248C221.116 645.364 215.432 647.422 208.18 647.422C203.802 647.422 199.817 646.54 196.224 644.776C192.63 643.012 189.788 640.529 187.698 637.328C185.607 634.061 184.562 630.305 184.562 626.058C184.562 621.485 185.705 617.467 187.992 614.004C190.278 610.541 193.382 607.895 197.302 606.066C201.287 604.171 205.697 603.224 210.532 603.224ZM211.708 635.564C215.17 635.564 217.98 634.617 220.136 632.722C222.357 630.762 223.468 628.279 223.468 625.274C223.468 622.269 222.39 619.819 220.234 617.924C218.143 616.029 215.236 615.082 211.512 615.082C208.114 615.082 205.338 615.997 203.182 617.826C201.091 619.655 200.046 622.138 200.046 625.274C200.046 628.41 201.091 630.925 203.182 632.82C205.338 634.649 208.18 635.564 211.708 635.564Z" fill="#E6E7FF" fill-opacity="0.4"/>
<path d="M198.528 742.4V811H182.652V755.14H168.932V742.4H198.528ZM236.905 742.4V811H221.029V755.14H207.309V742.4H236.905Z" fill="#E6E7FF" fill-opacity="0.4"/>
<line x1="306" y1="60" x2="306" y2="778" stroke="#F42D2D" stroke-width="2"/>
<path opacity="0.7" d="M205 61H305" stroke="#F42D2D" stroke-width="2" stroke-dasharray="10 10"/>
<circle opacity="0.2" cx="306" cy="60" r="9" fill="#F42D2D"/>
<circle cx="306" cy="60" r="5" fill="#F42D2D"/>
<circle opacity="0.2" cx="306" cy="110" r="9" fill="#F42D2D"/>
<circle cx="306" cy="110" r="5" fill="#F42D2D"/>
<circle opacity="0.2" cx="306" cy="196" r="9" fill="#F42D2D"/>
<circle cx="306" cy="196" r="5" fill="#F42D2D"/>
<circle opacity="0.2" cx="306" cy="260" r="9" fill="#F42D2D"/>
<circle cx="306" cy="260" r="5" fill="#F42D2D"/>
<circle opacity="0.2" cx="306" cy="333" r="9" fill="#F42D2D"/>
<circle cx="306" cy="333" r="5" fill="#F42D2D"/>
<circle opacity="0.2" cx="306" cy="440" r="9" fill="#F42D2D"/>
<circle cx="306" cy="440" r="5" fill="#F42D2D"/>
<circle opacity="0.2" cx="306" cy="504" r="9" fill="#F42D2D"/>
<circle cx="306" cy="504" r="5" fill="#F42D2D"/>
<circle opacity="0.2" cx="306" cy="555" r="9" fill="#F42D2D"/>
<circle cx="306" cy="555" r="5" fill="#F42D2D"/>
<circle opacity="0.2" cx="306" cy="640" r="9" fill="#F42D2D"/>
<circle cx="306" cy="640" r="5" fill="#F42D2D"/>
<circle opacity="0.2" cx="306" cy="702" r="9" fill="#F42D2D"/>
<circle cx="306" cy="702" r="5" fill="#F42D2D"/>
<circle opacity="0.2" cx="306" cy="777" r="19" fill="#F42D2D"/>
<circle cx="306" cy="777" r="5" fill="#F42D2D"/>
<path opacity="0.7" d="M205 196H305" stroke="#F42D2D" stroke-width="2" stroke-dasharray="10 10"/>
<path opacity="0.7" d="M205 333H305" stroke="#F42D2D" stroke-width="2" stroke-dasharray="10 10"/>
<path opacity="0.7" d="M205 504H305" stroke="#F42D2D" stroke-width="2" stroke-dasharray="10 10"/>
<path opacity="0.7" d="M306 440H406" stroke="#F42D2D" stroke-width="2" stroke-dasharray="10 10"/>
<path opacity="0.7" d="M306 555H406" stroke="#F42D2D" stroke-width="2" stroke-dasharray="10 10"/>
<path opacity="0.7" d="M306 702H406" stroke="#F42D2D" stroke-width="2" stroke-dasharray="10 10"/>
<path opacity="0.7" d="M204 640H304" stroke="#F42D2D" stroke-width="2" stroke-dasharray="10 10"/>
<path opacity="0.7" d="M204 777H304" stroke="#F42D2D" stroke-width="2" stroke-dasharray="10 10"/>
<path opacity="0.7" d="M306 260H406" stroke="#F42D2D" stroke-width="2" stroke-dasharray="10 10"/>
<path opacity="0.7" d="M306 110H406" stroke="#F42D2D" stroke-width="2" stroke-dasharray="10 10"/>
</svg>
