<svg width="60" height="60" viewBox="0 0 60 60" fill="none" xmlns="http://www.w3.org/2000/svg">
<path d="M58.234 33.1338C58.047 33.1338 57.8555 33.1604 57.664 33.2131L55.4983 33.8095L53.2499 28.3321C52.6131 26.7803 50.73 25.5179 49.0524 25.5179H41.7892V21.3198C41.7892 19.7618 41.3076 17.3209 40.7159 15.8789L40.353 14.995H40.628C41.8852 14.995 42.9082 13.9721 42.9082 12.7148V11.438C42.9082 10.3611 42.1654 9.57916 41.1422 9.57916C40.9551 9.57916 40.7636 9.60603 40.5721 9.65847L38.4067 10.2549L36.1581 4.77744C35.5213 3.22565 33.6381 1.9632 31.9606 1.9632H10.9173C9.24002 1.9632 7.35716 3.22565 6.7198 4.77744L4.4743 10.2476L2.33629 9.65874C2.14506 9.60603 1.95304 9.57916 1.76624 9.57916C0.74276 9.57916 0 10.3608 0 11.438V12.7148C0 13.9721 1.02296 14.995 2.2802 14.995H2.52518L2.16228 15.8789C1.57031 17.3204 1.08896 19.761 1.08896 21.3198V32.2017C1.08896 33.4589 2.11192 34.4819 3.36916 34.4819H6.34777C7.60501 34.4819 8.62797 33.4589 8.62797 32.2017V29.4842H23.3381L21.5656 33.802L19.4273 33.2129C19.2361 33.1602 19.0444 33.1336 18.8573 33.1336C17.8341 33.1336 17.0913 33.9155 17.0913 34.9924V36.2692C17.0913 37.5265 18.1143 38.5494 19.3715 38.5494H19.6165L19.2533 39.4336C18.6616 40.875 18.18 43.3157 18.18 44.8745V55.7563C18.18 57.0136 19.203 58.0365 20.4602 58.0365H23.4386C24.6958 58.0365 25.7188 57.0136 25.7188 55.7563V53.0389H51.3415V55.7563C51.3415 57.0136 52.3645 58.0365 53.6217 58.0365H56.5998C57.857 58.0365 58.88 57.0136 58.88 55.7563V44.8745C58.88 43.3157 58.3984 40.875 57.8067 39.4336L57.4438 38.5494H57.719C58.9763 38.5494 59.9992 37.5265 59.9992 36.2692V34.9924C60 33.9155 59.2572 33.1338 58.234 33.1338ZM37.4007 21.1351V24.2361C37.4007 24.7378 36.9903 25.1482 36.4887 25.1482H30.0271C29.5254 25.1482 29.1151 24.7378 29.1151 24.2361V21.1351C29.1151 20.6334 29.5254 20.223 30.0271 20.223H36.4887C36.9903 20.223 37.4007 20.6334 37.4007 21.1351ZM13.7023 24.2361C13.7023 24.7378 13.2919 25.1482 12.7902 25.1482H6.32899C5.82729 25.1482 5.41691 24.7378 5.41691 24.2361V21.1351C5.41691 20.6334 5.82729 20.223 6.32899 20.223H12.7905C13.2922 20.223 13.7026 20.6334 13.7026 21.1351V24.2361H13.7023ZM7.24107 15.444C6.23767 15.444 5.72867 14.6846 6.10958 13.7563L9.51057 5.47115C9.89173 4.5429 11.0243 3.78344 12.0274 3.78344H30.8505C31.8539 3.78344 32.9867 4.5429 33.3673 5.47115L36.7689 13.7563C37.1498 14.6846 36.6408 15.444 35.6374 15.444H7.24107ZM23.2009 37.311L26.6021 29.0258C26.983 28.0976 28.1158 27.3381 29.119 27.3381H47.9421C48.9455 27.3381 50.0783 28.0976 50.4592 29.0258L53.8602 37.311C54.2413 38.2392 53.7321 38.9987 52.7287 38.9987H24.3324C23.329 38.9987 22.82 38.2392 23.2009 37.311ZM30.7939 47.7908C30.7939 48.2924 30.3835 48.7028 29.8818 48.7028H23.4203C22.9186 48.7028 22.5082 48.2924 22.5082 47.7908V44.6898C22.5082 44.1881 22.9186 43.7777 23.4203 43.7777H29.8821C30.3838 43.7777 30.7942 44.1881 30.7942 44.6898V47.7908H30.7939ZM54.4918 47.7908C54.4918 48.2924 54.0814 48.7028 53.5797 48.7028H47.1184C46.6168 48.7028 46.2064 48.2924 46.2064 47.7908V44.6898C46.2064 44.1881 46.6168 43.7777 47.1184 43.7777H53.5797C54.0814 43.7777 54.4918 44.1881 54.4918 44.6898V47.7908Z" fill="#F42D2D"/>
</svg>
