<svg width="60" height="60" fill="none" xmlns="http://www.w3.org/2000/svg"><path d="M58.234 33.134a2.15 2.15 0 00-.57.08l-2.166.596-2.248-5.478c-.637-1.552-2.52-2.814-4.198-2.814H41.79V21.32c0-1.558-.481-4-1.073-5.441l-.363-.884h.275a2.283 2.283 0 002.28-2.28v-1.277c0-1.077-.743-1.859-1.766-1.859a2.16 2.16 0 00-.57.08l-2.165.596-2.249-5.478c-.637-1.551-2.52-2.814-4.197-2.814H10.917c-1.677 0-3.56 1.263-4.197 2.814l-2.246 5.47-2.138-.588a2.15 2.15 0 00-.57-.08C.743 9.58 0 10.361 0 11.438v1.277a2.283 2.283 0 002.28 2.28h.245l-.363.884C1.57 17.32 1.09 19.76 1.09 21.319v10.883a2.283 2.283 0 002.28 2.28h2.979a2.283 2.283 0 002.28-2.28v-2.718h14.71l-1.772 4.318-2.139-.59a2.147 2.147 0 00-.57-.078c-1.023 0-1.766.782-1.766 1.858v1.277a2.283 2.283 0 002.28 2.28h.245l-.363.885c-.591 1.441-1.073 3.882-1.073 5.44v10.882a2.283 2.283 0 002.28 2.28h2.979a2.283 2.283 0 002.28-2.28V53.04h25.623v2.717a2.283 2.283 0 002.28 2.28H56.6a2.283 2.283 0 002.28-2.28V44.874c0-1.558-.482-3.999-1.073-5.44l-.363-.885h.275a2.283 2.283 0 002.28-2.28v-1.277c.001-1.076-.742-1.858-1.765-1.858zM37.401 21.135v3.101c0 .502-.41.912-.912.912h-6.462a.915.915 0 01-.912-.912v-3.1c0-.503.41-.913.912-.913h6.462c.501 0 .912.41.912.912zm-23.699 3.101c0 .502-.41.912-.912.912H6.33a.915.915 0 01-.912-.912v-3.1c0-.503.41-.913.912-.913h6.462c.501 0 .912.41.912.912v3.101zm-6.46-8.792c-1.004 0-1.513-.76-1.132-1.688l3.4-8.285c.382-.928 1.514-1.688 2.517-1.688h18.824c1.003 0 2.136.76 2.516 1.688l3.402 8.285c.38.929-.128 1.688-1.132 1.688H7.241zM23.2 37.311l3.401-8.285c.381-.928 1.514-1.688 2.517-1.688h18.823c1.004 0 2.136.76 2.517 1.688l3.401 8.285c.381.928-.128 1.688-1.131 1.688H24.332c-1.003 0-1.512-.76-1.131-1.688zm7.593 10.48c0 .501-.41.912-.912.912H23.42a.915.915 0 01-.912-.912V44.69c0-.502.41-.912.912-.912h6.462c.502 0 .912.41.912.912v3.1zm23.698 0c0 .501-.41.912-.912.912h-6.462a.915.915 0 01-.912-.912V44.69c0-.502.41-.912.912-.912h6.462c.501 0 .912.41.912.912v3.1z" fill="#F42D2D"/></svg>