<svg width="60" height="60" viewBox="0 0 60 60" fill="none" xmlns="http://www.w3.org/2000/svg">
<path d="M30.8861 40.5509V40.3171C29.6914 40.3041 28.5487 40.2392 27.4449 40.1483C26.8476 41.6936 26.0035 43.135 24.9517 44.4206C26.9385 44.7453 28.9513 44.9271 30.964 44.953L30.8861 40.5509Z" fill="#F42D2D"/>
<path d="M25.6268 31.9543C24.6659 27.3574 21.2766 23.6175 16.7706 22.202C15.524 21.8255 14.2384 21.6307 12.9398 21.6307C9.71934 21.6437 6.60276 22.8383 4.22638 24.994C-1.05881 29.7987 -1.4354 37.9927 3.36932 43.2779C8.17404 48.5631 16.368 48.9396 21.6532 44.1349C24.3542 41.6806 25.8995 38.2134 25.8866 34.5645C25.8866 33.6944 25.7957 32.8114 25.6268 31.9543ZM12.9398 32.8244C15.1344 32.8244 17.0693 34.2788 17.6666 36.3954C18.3938 39.0056 16.8875 41.7066 14.2643 42.4468V43.5895C14.2643 44.3037 13.68 44.8881 12.9658 44.8881C12.2516 44.8881 11.6672 44.3037 11.6672 43.5895V42.4598C9.52455 41.8754 8.04418 39.9405 8.03119 37.72C8.03119 37.0058 8.61555 36.4214 9.32977 36.4214C10.044 36.4214 10.6283 37.0058 10.6283 37.72C10.6283 38.9926 11.6672 40.0185 12.9398 40.0185C14.2124 40.0185 15.2383 38.9796 15.2383 37.707C15.2383 36.4344 14.1994 35.4085 12.9268 35.4085C10.7063 35.4085 8.77138 33.9152 8.20001 31.7725C7.51176 29.1754 9.07005 26.4744 11.6802 25.7731V25.2147C11.6802 24.5005 12.2645 23.9162 12.9788 23.9162C13.693 23.9162 14.2773 24.5005 14.2773 25.2147V25.7991C16.394 26.3964 17.8484 28.3313 17.8484 30.5259C17.8484 31.2401 17.264 31.8245 16.5498 31.8245C15.8356 31.8245 15.2513 31.2401 15.2513 30.5259C15.2513 29.2533 14.2124 28.2144 12.9398 28.2144C11.6672 28.2144 10.6413 29.2403 10.6283 30.5259C10.6283 31.7985 11.6672 32.8244 12.9398 32.8244Z" fill="#F42D2D"/>
<path d="M30.8471 37.707L30.7692 33.1101C29.9641 33.0971 29.172 33.0711 28.4188 33.0192C28.4578 33.5386 28.4837 34.045 28.4837 34.5515C28.4837 35.5644 28.3798 36.5902 28.1851 37.5901C29.0421 37.668 29.9381 37.707 30.8471 37.707Z" fill="#F42D2D"/>
<path d="M45.0667 16.2157C44.1707 16.6832 43.2227 17.0598 42.2488 17.3455C39.327 18.2285 35.4962 18.709 31.4966 18.709C27.6658 18.709 24.0169 18.2674 21.199 17.4493C20.225 17.1896 19.2901 16.826 18.394 16.3715L18.4849 20.0335C19.9523 20.5789 21.3158 21.358 22.5495 22.332C22.5884 22.345 22.6144 22.345 22.6534 22.3579C25.1466 22.9942 28.2892 23.3319 31.4966 23.3319C35.2106 23.3319 38.8595 22.8644 41.4956 22.0723C44.3135 21.2152 44.9369 20.3192 44.9369 20.1504C44.9369 19.9686 44.9239 19.7998 45.0667 19.618V16.2157Z" fill="#F42D2D"/>
<path d="M41.4821 11.0603C38.846 10.2552 35.197 9.80072 31.4831 9.80072C27.7432 9.80072 24.2371 10.2552 21.614 11.0603C18.874 11.8914 18.2767 12.7095 18.2637 12.9692C18.2637 12.9692 18.2767 12.9692 18.2767 12.9952C18.3416 13.2809 19.1207 14.1639 21.9127 14.969C24.4968 15.7222 27.8991 16.1377 31.4831 16.1377C35.197 16.1377 38.833 15.6832 41.4691 14.8911C44.2871 14.047 44.9234 13.151 44.9234 12.9692C44.9234 12.8004 44.3 11.9174 41.4821 11.0603Z" fill="#F42D2D"/>
<path d="M59.9741 46.9918V43.0961C59.104 43.5376 58.195 43.9142 57.2471 44.1999C54.3383 45.0829 50.5335 45.5634 46.5209 45.5634C42.9628 45.5634 39.4956 45.1608 36.7686 44.4466C35.6518 44.1609 34.574 43.7713 33.5352 43.2649L33.6001 47.0307C33.6001 47.0437 33.6001 47.0437 33.6001 47.0567C33.6001 47.2515 34.1715 48.1215 36.9114 48.9656C39.5086 49.7577 43.0147 50.1993 46.7676 50.1993C50.5075 50.1993 54.0266 49.7448 56.6497 48.9267C59.3897 48.0696 59.9871 47.1736 59.9871 46.9918H59.9741Z" fill="#F42D2D"/>
<path d="M45.0405 23.4617C44.1445 23.9162 43.2095 24.2928 42.2356 24.5785C39.3138 25.4615 35.483 25.942 31.4704 25.942C29.4966 25.942 27.5357 25.8121 25.5879 25.5654C26.6397 27.0198 27.4189 28.656 27.9123 30.3961C29.0291 30.474 30.2368 30.526 31.4834 30.526C31.5224 30.526 31.5743 30.526 31.6133 30.526C33.7429 28.1885 39.4696 27.0198 45.0405 26.864V23.4617Z" fill="#F42D2D"/>
<path d="M57.1559 37.0188C54.2601 37.8758 50.4942 38.3433 46.5465 38.3433C42.7157 38.3433 39.0668 37.9018 36.2489 37.0837C35.2749 36.811 34.327 36.4474 33.418 35.9929L33.4699 38.9796L33.4829 40.0704C34.4958 41.33 39.3395 42.9532 46.5336 42.9532C50.2864 42.9532 53.8315 42.5117 56.4936 41.7066C59.2985 40.8495 59.9088 39.9665 59.9088 39.7847C59.9088 39.6419 59.9868 39.486 59.9868 39.3562H59.9997V35.915C59.0907 36.3695 58.1428 36.759 57.1559 37.0188Z" fill="#F42D2D"/>
<path d="M56.5456 30.7207C53.8965 29.9156 50.2605 29.4871 46.5466 29.4871H46.3259C42.8717 29.4871 39.5863 29.8766 37.067 30.5908C34.379 31.344 33.457 32.2011 33.3401 32.5517C33.3271 32.5777 33.3271 32.5906 33.3271 32.6036C33.3271 32.6036 33.3272 32.6036 33.3531 32.6556C33.431 32.9283 34.1972 33.8113 36.9891 34.6294C39.5733 35.3696 42.9755 35.7851 46.5596 35.7851C50.2605 35.7851 53.7667 35.3566 56.4287 34.5645C59.3116 33.7074 59.9609 32.8114 59.9739 32.6166V32.6036C59.9609 32.4088 59.3116 31.5518 56.5456 30.7207Z" fill="#F42D2D"/>
</svg>
