<svg width="59" height="59" fill="none" xmlns="http://www.w3.org/2000/svg"><g clip-path="url(#clip0)" fill="#F42D2D"><path d="M17.383 59h24.45v-9.019c0-1.047.848-1.895 1.895-1.895h9.544V11.49c0-.98-.794-1.775-1.774-1.775H17.383c-.98 0-1.775.795-1.775 1.775v45.735c0 .98.795 1.774 1.774 1.774zm4.11-37.954H47.64a1.895 1.895 0 010 3.79H21.492a1.895 1.895 0 010-3.79zm0 7.598H47.64a1.895 1.895 0 010 3.79H21.492a1.895 1.895 0 110-3.79zm0 7.598H47.64a1.895 1.895 0 010 3.79H21.492a1.895 1.895 0 010-3.79zm0 7.597h15.541a1.895 1.895 0 010 3.79H21.492a1.895 1.895 0 010-3.79z"/><path d="M11.818 7.821c0-1.046.849-1.895 1.895-1.895h33.47V1.774c0-.98-.795-1.774-1.775-1.774H7.502c-.98 0-1.774.794-1.774 1.774V51.3c0 .98.794 1.774 1.774 1.774h4.316V7.82zm38.618 44.055h-4.813v4.592l4.813-4.592z"/></g><defs><clipPath id="clip0"><path fill="#fff" d="M0 0h59v59H0z"/></clipPath></defs></svg>