<svg width="59" height="59" viewBox="0 0 59 59" fill="none" xmlns="http://www.w3.org/2000/svg">
<g clip-path="url(#clip0)">
<path d="M17.3825 59H41.8325V49.981C41.8325 48.9343 42.681 48.0859 43.7276 48.0859H53.2723V11.4905C53.2723 10.5106 52.478 9.71634 51.4982 9.71634H17.3825C16.4027 9.71634 15.6084 10.5106 15.6084 11.4905V57.2259C15.6084 58.2057 16.4027 59 17.3825 59ZM21.4924 21.0456H47.6405C48.687 21.0456 49.5355 21.8941 49.5355 22.9406C49.5355 23.9872 48.687 24.8357 47.6405 24.8357H21.4924C20.4458 24.8357 19.5974 23.9872 19.5974 22.9406C19.5974 21.8941 20.4458 21.0456 21.4924 21.0456ZM21.4924 28.6435H47.6405C48.687 28.6435 49.5355 29.4919 49.5355 30.5385C49.5355 31.5851 48.687 32.4335 47.6405 32.4335H21.4924C20.4458 32.4335 19.5974 31.5851 19.5974 30.5385C19.5974 29.4919 20.4458 28.6435 21.4924 28.6435ZM21.4924 36.2415H47.6405C48.687 36.2415 49.5355 37.0899 49.5355 38.1365C49.5355 39.183 48.687 40.0315 47.6405 40.0315H21.4924C20.4458 40.0315 19.5974 39.183 19.5974 38.1365C19.5974 37.0899 20.4458 36.2415 21.4924 36.2415ZM21.4924 43.8393H37.0344C38.081 43.8393 38.9294 44.6878 38.9294 45.7343C38.9294 46.7809 38.081 47.6294 37.0344 47.6294H21.4924C20.4458 47.6294 19.5974 46.7809 19.5974 45.7343C19.5974 44.6878 20.4458 43.8393 21.4924 43.8393Z" fill="#F42D2D"/>
<path d="M11.8182 7.82119C11.8182 6.77451 12.6666 5.92616 13.7132 5.92616H47.1821V1.77426C47.1822 0.794311 46.3878 0 45.4079 0H7.50218C6.52234 0 5.72803 0.79431 5.72803 1.77415V51.2997C5.72803 52.2795 6.52234 53.0738 7.50218 53.0738H11.8182V7.82119Z" fill="#F42D2D"/>
<path d="M50.4357 51.876H45.6226V56.468L50.4357 51.876Z" fill="#F42D2D"/>
</g>
<defs>
<clipPath id="clip0">
<rect width="59" height="59" fill="white"/>
</clipPath>
</defs>
</svg>
