<svg width="39" height="924" viewBox="0 0 39 924" fill="none" xmlns="http://www.w3.org/2000/svg">
<line x1="19" y1="9" x2="19" y2="906" stroke="#F42D2D" stroke-width="2"/>
<path opacity="0.7" d="M19 10H39" stroke="#F42D2D" stroke-width="2" stroke-dasharray="10 10"/>
<circle opacity="0.2" cx="19" cy="9" r="9" fill="#F42D2D"/>
<circle cx="19" cy="9" r="5" fill="#F42D2D"/>
<circle opacity="0.2" cx="19" cy="94" r="9" fill="#F42D2D"/>
<circle cx="19" cy="94" r="5" fill="#F42D2D"/>
<circle opacity="0.2" cx="19" cy="191" r="9" fill="#F42D2D"/>
<circle cx="19" cy="191" r="5" fill="#F42D2D"/>
<circle opacity="0.2" cx="19" cy="302" r="9" fill="#F42D2D"/>
<circle cx="19" cy="302" r="5" fill="#F42D2D"/>
<circle opacity="0.2" cx="19" cy="412" r="9" fill="#F42D2D"/>
<circle cx="19" cy="412" r="5" fill="#F42D2D"/>
<circle opacity="0.2" cx="19" cy="498" r="9" fill="#F42D2D"/>
<circle cx="19" cy="498" r="5" fill="#F42D2D"/>
<circle opacity="0.2" cx="19" cy="572" r="9" fill="#F42D2D"/>
<circle cx="19" cy="572" r="5" fill="#F42D2D"/>
<circle opacity="0.2" cx="19" cy="646" r="9" fill="#F42D2D"/>
<circle cx="19" cy="646" r="5" fill="#F42D2D"/>
<circle opacity="0.2" cx="19" cy="726" r="9" fill="#F42D2D"/>
<circle cx="19" cy="726" r="5" fill="#F42D2D"/>
<circle opacity="0.2" cx="19" cy="818" r="9" fill="#F42D2D"/>
<circle cx="19" cy="818" r="5" fill="#F42D2D"/>
<path opacity="0.7" d="M19 192.429H39" stroke="#F42D2D" stroke-width="2" stroke-dasharray="10 10"/>
<path opacity="0.7" d="M19 302H39" stroke="#F42D2D" stroke-width="2" stroke-dasharray="10 10"/>
<path opacity="0.7" d="M19 572H39" stroke="#F42D2D" stroke-width="2" stroke-dasharray="10 10"/>
<path opacity="0.7" d="M19 726H39" stroke="#F42D2D" stroke-width="2" stroke-dasharray="10 10"/>
<path opacity="0.7" d="M19 906H39" stroke="#F42D2D" stroke-width="2" stroke-dasharray="10 10"/>
<circle opacity="0.2" cx="19" cy="905" r="19" fill="#F42D2D"/>
<circle cx="19" cy="905" r="5" fill="#F42D2D"/>
<path opacity="0.7" d="M19 94H39" stroke="#F42D2D" stroke-width="2" stroke-dasharray="10 10"/>
<path opacity="0.7" d="M19 498.5H39" stroke="#F42D2D" stroke-width="2" stroke-dasharray="10 10"/>
<path opacity="0.7" d="M19 647.215H39" stroke="#F42D2D" stroke-width="2" stroke-dasharray="10 10"/>
<path opacity="0.7" d="M19 412.5H39" stroke="#F42D2D" stroke-width="2" stroke-dasharray="10 10"/>
<path opacity="0.7" d="M19 818.643H39" stroke="#F42D2D" stroke-width="2" stroke-dasharray="10 10"/>
</svg>
