<svg width="26" height="26" viewBox="0 0 26 26" fill="none" xmlns="http://www.w3.org/2000/svg">
<circle cx="13" cy="13" r="13" fill="#F42D2D"/>
<path d="M19.9896 9.01613C19.9896 9.00014 20.0006 8.98456 19.9999 8.96875L15.7275 13.0854L19.9948 17.0705C19.9973 17.042 19.9896 17.0133 19.9896 16.9842V9.01613Z" fill="white"/>
<path d="M15.0752 13.7188L13.3311 15.3968C13.2429 15.4817 13.1289 15.5243 13.0148 15.5243C12.9032 15.5243 12.7915 15.4835 12.7038 15.4018L10.9645 13.781L6.66943 17.921C6.77387 17.9585 6.88597 17.9877 7.00336 17.9877H19.0264C19.2007 17.9877 19.3642 17.9346 19.5063 17.8554L15.0752 13.7188Z" fill="white"/>
<path d="M13.0103 14.4399L19.5304 8.1591C19.3828 8.07133 19.211 8.01245 19.0268 8.01245H7.0038C6.76397 8.01245 6.54421 8.10557 6.37305 8.2476L13.0103 14.4399Z" fill="white"/>
<path d="M6 9.16919V16.9842C6 17.0739 6.02062 17.1604 6.043 17.243L10.2848 13.1583L6 9.16919Z" fill="white"/>
</svg>
