<svg width="250" height="966" viewBox="0 0 250 966" fill="none" xmlns="http://www.w3.org/2000/svg">
<path d="M196.767 70.864C192.591 70.864 188.871 69.832 185.607 67.768C182.343 65.704 179.775 62.728 177.903 58.84C176.079 54.904 175.167 50.224 175.167 44.8C175.167 39.376 176.079 34.72 177.903 30.832C179.775 26.896 182.343 23.896 185.607 21.832C188.871 19.768 192.591 18.736 196.767 18.736C200.943 18.736 204.663 19.768 207.927 21.832C211.191 23.896 213.735 26.896 215.559 30.832C217.431 34.72 218.367 39.376 218.367 44.8C218.367 50.224 217.431 54.904 215.559 58.84C213.735 62.728 211.191 65.704 207.927 67.768C204.663 69.832 200.943 70.864 196.767 70.864ZM196.767 61C199.839 61 202.239 59.68 203.967 57.04C205.743 54.4 206.631 50.32 206.631 44.8C206.631 39.28 205.743 35.2 203.967 32.56C202.239 29.92 199.839 28.6 196.767 28.6C193.743 28.6 191.343 29.92 189.567 32.56C187.839 35.2 186.975 39.28 186.975 44.8C186.975 50.32 187.839 54.4 189.567 57.04C191.343 59.68 193.743 61 196.767 61ZM243.053 19.6V70H231.389V28.96H221.309V19.6H243.053Z" fill="#E6E7FF" fill-opacity="0.4"/>
<path d="M178.494 152.864C174.318 152.864 170.598 151.832 167.334 149.768C164.07 147.704 161.502 144.728 159.63 140.84C157.806 136.904 156.894 132.224 156.894 126.8C156.894 121.376 157.806 116.72 159.63 112.832C161.502 108.896 164.07 105.896 167.334 103.832C170.598 101.768 174.318 100.736 178.494 100.736C182.67 100.736 186.39 101.768 189.654 103.832C192.918 105.896 195.462 108.896 197.286 112.832C199.158 116.72 200.094 121.376 200.094 126.8C200.094 132.224 199.158 136.904 197.286 140.84C195.462 144.728 192.918 147.704 189.654 149.768C186.39 151.832 182.67 152.864 178.494 152.864ZM178.494 143C181.566 143 183.966 141.68 185.694 139.04C187.47 136.4 188.358 132.32 188.358 126.8C188.358 121.28 187.47 117.2 185.694 114.56C183.966 111.92 181.566 110.6 178.494 110.6C175.47 110.6 173.07 111.92 171.294 114.56C169.566 117.2 168.702 121.28 168.702 126.8C168.702 132.32 169.566 136.4 171.294 139.04C173.07 141.68 175.47 143 178.494 143ZM242.995 142.496V152H204.907V144.44L224.347 126.08C226.411 124.112 227.803 122.432 228.523 121.04C229.243 119.6 229.603 118.184 229.603 116.792C229.603 114.776 228.907 113.24 227.515 112.184C226.171 111.08 224.179 110.528 221.539 110.528C219.331 110.528 217.339 110.96 215.563 111.824C213.787 112.64 212.299 113.888 211.099 115.568L202.603 110.096C204.571 107.168 207.283 104.888 210.739 103.256C214.195 101.576 218.155 100.736 222.619 100.736C226.363 100.736 229.627 101.36 232.411 102.608C235.243 103.808 237.427 105.536 238.963 107.792C240.547 110 241.339 112.616 241.339 115.64C241.339 118.376 240.763 120.944 239.611 123.344C238.459 125.744 236.227 128.48 232.915 131.552L221.323 142.496H242.995Z" fill="#E6E7FF" fill-opacity="0.4"/>
<path d="M170.9 362.864C166.724 362.864 163.004 361.832 159.74 359.768C156.476 357.704 153.908 354.728 152.036 350.84C150.212 346.904 149.3 342.224 149.3 336.8C149.3 331.376 150.212 326.72 152.036 322.832C153.908 318.896 156.476 315.896 159.74 313.832C163.004 311.768 166.724 310.736 170.9 310.736C175.076 310.736 178.796 311.768 182.06 313.832C185.324 315.896 187.868 318.896 189.692 322.832C191.564 326.72 192.5 331.376 192.5 336.8C192.5 342.224 191.564 346.904 189.692 350.84C187.868 354.728 185.324 357.704 182.06 359.768C178.796 361.832 175.076 362.864 170.9 362.864ZM170.9 353C173.972 353 176.372 351.68 178.1 349.04C179.876 346.4 180.764 342.32 180.764 336.8C180.764 331.28 179.876 327.2 178.1 324.56C176.372 321.92 173.972 320.6 170.9 320.6C167.876 320.6 165.476 321.92 163.7 324.56C161.972 327.2 161.108 331.28 161.108 336.8C161.108 342.32 161.972 346.4 163.7 349.04C165.476 351.68 167.876 353 170.9 353ZM244.319 351.416H236.111V362H224.735V351.416H197.591V343.568L221.351 311.6H233.591L211.559 341.912H225.095V332.48H236.111V341.912H244.319V351.416Z" fill="#E6E7FF" fill-opacity="0.4"/>
<path d="M174.697 558.864C170.521 558.864 166.801 557.832 163.537 555.768C160.273 553.704 157.705 550.728 155.833 546.84C154.009 542.904 153.097 538.224 153.097 532.8C153.097 527.376 154.009 522.72 155.833 518.832C157.705 514.896 160.273 511.896 163.537 509.832C166.801 507.768 170.521 506.736 174.697 506.736C178.873 506.736 182.593 507.768 185.857 509.832C189.121 511.896 191.665 514.896 193.489 518.832C195.361 522.72 196.297 527.376 196.297 532.8C196.297 538.224 195.361 542.904 193.489 546.84C191.665 550.728 189.121 553.704 185.857 555.768C182.593 557.832 178.873 558.864 174.697 558.864ZM174.697 549C177.769 549 180.169 547.68 181.897 545.04C183.673 542.4 184.561 538.32 184.561 532.8C184.561 527.28 183.673 523.2 181.897 520.56C180.169 517.92 177.769 516.6 174.697 516.6C171.673 516.6 169.273 517.92 167.497 520.56C165.769 523.2 164.905 527.28 164.905 532.8C164.905 538.32 165.769 542.4 167.497 545.04C169.273 547.68 171.673 549 174.697 549ZM226.228 526.392C229.444 526.392 232.372 527.04 235.012 528.336C237.652 529.632 239.74 531.48 241.276 533.88C242.812 536.232 243.58 538.968 243.58 542.088C243.58 545.448 242.74 548.4 241.06 550.944C239.38 553.488 237.076 555.456 234.148 556.848C231.268 558.192 228.052 558.864 224.5 558.864C217.444 558.864 211.924 556.704 207.94 552.384C203.956 548.064 201.964 541.896 201.964 533.88C201.964 528.168 203.044 523.272 205.204 519.192C207.364 515.112 210.364 512.016 214.204 509.904C218.092 507.792 222.58 506.736 227.668 506.736C230.356 506.736 232.924 507.048 235.372 507.672C237.868 508.248 239.98 509.088 241.708 510.192L237.388 518.76C234.892 517.08 231.748 516.24 227.956 516.24C223.684 516.24 220.3 517.488 217.804 519.984C215.308 522.48 213.964 526.104 213.772 530.856C216.748 527.88 220.9 526.392 226.228 526.392ZM223.852 550.152C226.348 550.152 228.364 549.48 229.9 548.136C231.484 546.792 232.276 544.968 232.276 542.664C232.276 540.36 231.484 538.536 229.9 537.192C228.364 535.8 226.3 535.104 223.708 535.104C221.164 535.104 219.076 535.824 217.444 537.264C215.812 538.656 214.996 540.456 214.996 542.664C214.996 544.872 215.788 546.672 217.372 548.064C218.956 549.456 221.116 550.152 223.852 550.152Z" fill="#E6E7FF" fill-opacity="0.4"/>
<path d="M173.01 709.864C168.834 709.864 165.114 708.832 161.85 706.768C158.586 704.704 156.018 701.728 154.146 697.84C152.322 693.904 151.41 689.224 151.41 683.8C151.41 678.376 152.322 673.72 154.146 669.832C156.018 665.896 158.586 662.896 161.85 660.832C165.114 658.768 168.834 657.736 173.01 657.736C177.186 657.736 180.906 658.768 184.17 660.832C187.434 662.896 189.978 665.896 191.802 669.832C193.674 673.72 194.61 678.376 194.61 683.8C194.61 689.224 193.674 693.904 191.802 697.84C189.978 701.728 187.434 704.704 184.17 706.768C180.906 708.832 177.186 709.864 173.01 709.864ZM173.01 700C176.082 700 178.482 698.68 180.21 696.04C181.986 693.4 182.874 689.32 182.874 683.8C182.874 678.28 181.986 674.2 180.21 671.56C178.482 668.92 176.082 667.6 173.01 667.6C169.986 667.6 167.586 668.92 165.81 671.56C164.082 674.2 163.218 678.28 163.218 683.8C163.218 689.32 164.082 693.4 165.81 696.04C167.586 698.68 169.986 700 173.01 700ZM234.765 682.504C237.261 683.752 239.157 685.384 240.453 687.4C241.797 689.416 242.469 691.744 242.469 694.384C242.469 697.504 241.581 700.24 239.805 702.592C238.029 704.896 235.533 706.696 232.317 707.992C229.101 709.24 225.381 709.864 221.157 709.864C216.933 709.864 213.213 709.24 209.997 707.992C206.829 706.696 204.357 704.896 202.581 702.592C200.853 700.24 199.989 697.504 199.989 694.384C199.989 691.744 200.637 689.416 201.933 687.4C203.277 685.384 205.173 683.752 207.621 682.504C205.749 681.352 204.309 679.912 203.301 678.184C202.293 676.408 201.789 674.392 201.789 672.136C201.789 669.208 202.605 666.664 204.237 664.504C205.869 662.344 208.149 660.688 211.077 659.536C214.005 658.336 217.365 657.736 221.157 657.736C224.997 657.736 228.381 658.336 231.309 659.536C234.285 660.688 236.589 662.344 238.221 664.504C239.853 666.664 240.669 669.208 240.669 672.136C240.669 674.392 240.165 676.408 239.157 678.184C238.149 679.912 236.685 681.352 234.765 682.504ZM221.157 666.304C218.805 666.304 216.909 666.88 215.469 668.032C214.077 669.136 213.381 670.672 213.381 672.64C213.381 674.56 214.077 676.072 215.469 677.176C216.861 678.28 218.757 678.832 221.157 678.832C223.557 678.832 225.477 678.28 226.917 677.176C228.357 676.072 229.077 674.56 229.077 672.64C229.077 670.672 228.357 669.136 226.917 668.032C225.477 666.88 223.557 666.304 221.157 666.304ZM221.157 701.296C224.085 701.296 226.389 700.648 228.069 699.352C229.797 698.008 230.661 696.232 230.661 694.024C230.661 691.816 229.797 690.064 228.069 688.768C226.389 687.472 224.085 686.824 221.157 686.824C218.277 686.824 215.997 687.472 214.317 688.768C212.637 690.064 211.797 691.816 211.797 694.024C211.797 696.28 212.637 698.056 214.317 699.352C215.997 700.648 218.277 701.296 221.157 701.296Z" fill="#E6E7FF" fill-opacity="0.4"/>
<path d="M190.186 822.6V873H178.521V831.96H168.442V822.6H190.186ZM220.541 873.864C216.365 873.864 212.645 872.832 209.381 870.768C206.117 868.704 203.549 865.728 201.677 861.84C199.853 857.904 198.941 853.224 198.941 847.8C198.941 842.376 199.853 837.72 201.677 833.832C203.549 829.896 206.117 826.896 209.381 824.832C212.645 822.768 216.365 821.736 220.541 821.736C224.717 821.736 228.437 822.768 231.701 824.832C234.965 826.896 237.509 829.896 239.333 833.832C241.205 837.72 242.141 842.376 242.141 847.8C242.141 853.224 241.205 857.904 239.333 861.84C237.509 865.728 234.965 868.704 231.701 870.768C228.437 872.832 224.717 873.864 220.541 873.864ZM220.541 864C223.613 864 226.013 862.68 227.741 860.04C229.517 857.4 230.405 853.32 230.405 847.8C230.405 842.28 229.517 838.2 227.741 835.56C226.013 832.92 223.613 831.6 220.541 831.6C217.517 831.6 215.117 832.92 213.341 835.56C211.613 838.2 210.749 842.28 210.749 847.8C210.749 853.32 211.613 857.4 213.341 860.04C215.117 862.68 217.517 864 220.541 864Z" fill="#E6E7FF" fill-opacity="0.4"/>
<path d="M178.635 249.864C174.459 249.864 170.739 248.832 167.475 246.768C164.211 244.704 161.643 241.728 159.771 237.84C157.947 233.904 157.035 229.224 157.035 223.8C157.035 218.376 157.947 213.72 159.771 209.832C161.643 205.896 164.211 202.896 167.475 200.832C170.739 198.768 174.459 197.736 178.635 197.736C182.811 197.736 186.531 198.768 189.795 200.832C193.059 202.896 195.603 205.896 197.427 209.832C199.299 213.72 200.235 218.376 200.235 223.8C200.235 229.224 199.299 233.904 197.427 237.84C195.603 241.728 193.059 244.704 189.795 246.768C186.531 248.832 182.811 249.864 178.635 249.864ZM178.635 240C181.707 240 184.107 238.68 185.835 236.04C187.611 233.4 188.499 229.32 188.499 223.8C188.499 218.28 187.611 214.2 185.835 211.56C184.107 208.92 181.707 207.6 178.635 207.6C175.611 207.6 173.211 208.92 171.435 211.56C169.707 214.2 168.843 218.28 168.843 223.8C168.843 229.32 169.707 233.4 171.435 236.04C173.211 238.68 175.611 240 178.635 240ZM228.743 219.12C233.159 219.84 236.543 221.496 238.895 224.088C241.247 226.632 242.423 229.8 242.423 233.592C242.423 236.52 241.655 239.232 240.119 241.728C238.583 244.176 236.231 246.144 233.063 247.632C229.943 249.12 226.103 249.864 221.543 249.864C217.991 249.864 214.487 249.408 211.031 248.496C207.623 247.536 204.719 246.192 202.319 244.464L206.855 235.536C208.775 236.976 210.983 238.104 213.479 238.92C216.023 239.688 218.615 240.072 221.255 240.072C224.183 240.072 226.487 239.52 228.167 238.416C229.847 237.264 230.687 235.656 230.687 233.592C230.687 229.464 227.543 227.4 221.255 227.4H215.927V219.696L226.295 207.96H204.839V198.6H240.119V206.16L228.743 219.12Z" fill="#E6E7FF" fill-opacity="0.4"/>
<path d="M177.721 464.864C173.545 464.864 169.825 463.832 166.561 461.768C163.297 459.704 160.729 456.728 158.857 452.84C157.033 448.904 156.121 444.224 156.121 438.8C156.121 433.376 157.033 428.72 158.857 424.832C160.729 420.896 163.297 417.896 166.561 415.832C169.825 413.768 173.545 412.736 177.721 412.736C181.897 412.736 185.617 413.768 188.881 415.832C192.145 417.896 194.689 420.896 196.513 424.832C198.385 428.72 199.321 433.376 199.321 438.8C199.321 444.224 198.385 448.904 196.513 452.84C194.689 456.728 192.145 459.704 188.881 461.768C185.617 463.832 181.897 464.864 177.721 464.864ZM177.721 455C180.793 455 183.193 453.68 184.921 451.04C186.697 448.4 187.585 444.32 187.585 438.8C187.585 433.28 186.697 429.2 184.921 426.56C183.193 423.92 180.793 422.6 177.721 422.6C174.697 422.6 172.297 423.92 170.521 426.56C168.793 429.2 167.929 433.28 167.929 438.8C167.929 444.32 168.793 448.4 170.521 451.04C172.297 453.68 174.697 455 177.721 455ZM222.268 432.536C229.372 432.536 234.604 433.952 237.964 436.784C241.372 439.616 243.076 443.408 243.076 448.16C243.076 451.232 242.308 454.04 240.772 456.584C239.236 459.08 236.884 461.096 233.716 462.632C230.596 464.12 226.732 464.864 222.124 464.864C218.572 464.864 215.068 464.408 211.612 463.496C208.204 462.536 205.3 461.192 202.9 459.464L207.508 450.536C209.428 451.976 211.636 453.104 214.132 453.92C216.628 454.688 219.196 455.072 221.836 455.072C224.764 455.072 227.068 454.496 228.748 453.344C230.428 452.192 231.268 450.584 231.268 448.52C231.268 446.36 230.38 444.728 228.604 443.624C226.876 442.52 223.852 441.968 219.532 441.968H206.644L209.236 413.6H239.98V422.96H218.956L218.164 432.536H222.268Z" fill="#E6E7FF" fill-opacity="0.4"/>
<path d="M176.174 632.864C171.998 632.864 168.278 631.832 165.014 629.768C161.75 627.704 159.182 624.728 157.31 620.84C155.486 616.904 154.574 612.224 154.574 606.8C154.574 601.376 155.486 596.72 157.31 592.832C159.182 588.896 161.75 585.896 165.014 583.832C168.278 581.768 171.998 580.736 176.174 580.736C180.35 580.736 184.07 581.768 187.334 583.832C190.598 585.896 193.142 588.896 194.966 592.832C196.838 596.72 197.774 601.376 197.774 606.8C197.774 612.224 196.838 616.904 194.966 620.84C193.142 624.728 190.598 627.704 187.334 629.768C184.07 631.832 180.35 632.864 176.174 632.864ZM176.174 623C179.246 623 181.646 621.68 183.374 619.04C185.15 616.4 186.038 612.32 186.038 606.8C186.038 601.28 185.15 597.2 183.374 594.56C181.646 591.92 179.246 590.6 176.174 590.6C173.15 590.6 170.75 591.92 168.974 594.56C167.246 597.2 166.382 601.28 166.382 606.8C166.382 612.32 167.246 616.4 168.974 619.04C170.75 621.68 173.15 623 176.174 623ZM242.616 581.6V589.16L223.896 632H211.224L229.296 591.104H212.592V599.312H202.224V581.6H242.616Z" fill="#E6E7FF" fill-opacity="0.4"/>
<path d="M174.697 790.864C170.521 790.864 166.801 789.832 163.537 787.768C160.273 785.704 157.705 782.728 155.833 778.84C154.009 774.904 153.097 770.224 153.097 764.8C153.097 759.376 154.009 754.72 155.833 750.832C157.705 746.896 160.273 743.896 163.537 741.832C166.801 739.768 170.521 738.736 174.697 738.736C178.873 738.736 182.593 739.768 185.857 741.832C189.121 743.896 191.665 746.896 193.489 750.832C195.361 754.72 196.297 759.376 196.297 764.8C196.297 770.224 195.361 774.904 193.489 778.84C191.665 782.728 189.121 785.704 185.857 787.768C182.593 789.832 178.873 790.864 174.697 790.864ZM174.697 781C177.769 781 180.169 779.68 181.897 777.04C183.673 774.4 184.561 770.32 184.561 764.8C184.561 759.28 183.673 755.2 181.897 752.56C180.169 749.92 177.769 748.6 174.697 748.6C171.673 748.6 169.273 749.92 167.497 752.56C165.769 755.2 164.905 759.28 164.905 764.8C164.905 770.32 165.769 774.4 167.497 777.04C169.273 779.68 171.673 781 174.697 781ZM219.676 738.736C226.732 738.736 232.252 740.896 236.236 745.216C240.22 749.488 242.212 755.656 242.212 763.72C242.212 769.432 241.132 774.328 238.972 778.408C236.86 782.488 233.86 785.584 229.972 787.696C226.084 789.808 221.596 790.864 216.508 790.864C213.82 790.864 211.252 790.576 208.804 790C206.356 789.376 204.268 788.512 202.54 787.408L206.86 778.84C209.308 780.52 212.452 781.36 216.292 781.36C220.564 781.36 223.948 780.112 226.444 777.616C228.94 775.072 230.284 771.424 230.476 766.672C227.452 769.696 223.276 771.208 217.948 771.208C214.732 771.208 211.804 770.56 209.164 769.264C206.524 767.968 204.436 766.144 202.9 763.792C201.364 761.392 200.596 758.632 200.596 755.512C200.596 752.152 201.436 749.2 203.116 746.656C204.796 744.112 207.076 742.168 209.956 740.824C212.884 739.432 216.124 738.736 219.676 738.736ZM220.54 762.496C223.084 762.496 225.148 761.8 226.732 760.408C228.364 758.968 229.18 757.144 229.18 754.936C229.18 752.728 228.388 750.928 226.804 749.536C225.268 748.144 223.132 747.448 220.396 747.448C217.9 747.448 215.86 748.12 214.276 749.464C212.74 750.808 211.972 752.632 211.972 754.936C211.972 757.24 212.74 759.088 214.276 760.48C215.86 761.824 217.948 762.496 220.54 762.496Z" fill="#E6E7FF" fill-opacity="0.4"/>
<path d="M215.857 911.6V962H204.193V920.96H194.113V911.6H215.857ZM244.053 911.6V962H232.389V920.96H222.309V911.6H244.053Z" fill="#E6E7FF" fill-opacity="0.4"/>
</svg>
