<svg width="26" height="26" viewBox="0 0 26 26" fill="none" xmlns="http://www.w3.org/2000/svg">
<circle cx="13" cy="13" r="13" fill="#F42D2D"/>
<g clip-path="url(#clip0)">
<path d="M19.1462 16.0407L17.332 14.2265C16.6841 13.5786 15.5826 13.8378 15.3234 14.68C15.1291 15.2632 14.4811 15.5872 13.898 15.4576C12.6022 15.1336 10.8528 13.449 10.5288 12.0883C10.3344 11.5052 10.7232 10.8573 11.3063 10.6629C12.1486 10.4037 12.4078 9.30227 11.7599 8.65435L9.94567 6.84016C9.42733 6.38661 8.64982 6.38661 8.19627 6.84016L6.96522 8.07122C5.73416 9.36706 7.0948 12.8011 10.14 15.8463C13.1853 18.8916 16.6193 20.317 17.9151 19.0211L19.1462 17.7901C19.5998 17.2717 19.5998 16.4942 19.1462 16.0407Z" fill="white"/>
</g>
<defs>
<clipPath id="clip0">
<rect width="13" height="13" fill="white" transform="translate(6.5 6.5)"/>
</clipPath>
</defs>
</svg>
