<svg width="60" height="60" fill="none" xmlns="http://www.w3.org/2000/svg"><path d="M30.024 8.83a1.758 1.758 0 000 3.512 1.757 1.757 0 000-3.512z" fill="#F42D2D"/><path d="M30.024.047c-5.811 0-10.539 4.728-10.539 10.539 0 3.451 1.36 5.553 4.347 9.91 1.614 2.355 3.623 5.286 6.192 9.528 2.55-4.213 4.558-7.14 6.182-9.511 2.991-4.36 4.357-6.47 4.357-9.927 0-5.811-4.728-10.539-10.539-10.539zm0 15.808a5.275 5.275 0 01-5.27-5.269 5.275 5.275 0 015.27-5.27 5.275 5.275 0 015.27 5.27 5.275 5.275 0 01-5.27 5.27z" fill="#F42D2D"/><path d="M58.788 20.391l-1.77-2.775-1.32 3.017c-.938 2.144-2.29 3.045-3.377 3.767-1.307.867-1.249.906-2.688 2.655-.886 1.084-2.303 2.815-3.085 3.32-.098-.188-.232-.507-.37-1.025-.142-.525-.684-2.123-2.147-2.597-1.53-.504-2.825.571-3.978 1.513-.556.447-.916-.193-.626-.93.079-.204.187-.394.302-.605l1.087-2.112c-1.62-.715-1.669-.786-2.443-1.049-4.56 6.679-5.917 9.318-8.35 13.236-2.636-4.22-3.659-6.4-9.088-14.324-.62-.903-1.15-1.698-1.666-2.487-3.663-.559-5.277-.78-16.848-2.506-.29 1.666-.16 2.042-1.203 7.54-2.693 14.182-2.565 17.622 18.034 26.84 4.192 1.876 5.165 3.022 6.105 4.13 2.192 2.589 3.127 2.535 4.856 3.767 1.416-4.95 1.352-5.17 1.427-5.275 6.314-1.328 5.029-1.02 7.688-1.68 4.423-1.095 4.533-1.087 8.746 4.852l1.623 2.29 1.35-2.46c1.103-2.012 1.22-3.99.353-6.041-1.199-2.85-.533-3.958.568-5.791.97-1.618 2.18-3.748 2.153-7.083-.026-2.933.904-5.172 2.838-6.846 1.356-1.173 1.864-4.135 2.448-5.303.959-1.91.756-3.884-.62-6.038z" fill="#F42D2D"/></svg>