<svg width="60" height="60" viewBox="0 0 60 60" fill="none" xmlns="http://www.w3.org/2000/svg">
<path d="M30.024 8.82962C29.0548 8.82962 28.2676 9.617 28.2676 10.586C28.2676 11.5551 29.055 12.3424 30.024 12.3424C30.993 12.3424 31.7804 11.5551 31.7804 10.586C31.7804 9.617 30.993 8.82962 30.024 8.82962Z" fill="#F42D2D"/>
<path d="M30.024 0.0473328C24.2127 0.0473328 19.4854 4.77456 19.4854 10.586C19.4854 14.0372 20.8455 16.1388 23.8318 20.4956C25.4459 22.8506 27.4546 25.7821 30.024 30.0239C32.5746 25.8111 34.5816 22.8833 36.2059 20.5126C39.1973 16.1524 40.5627 14.0439 40.5627 10.5859C40.5627 4.77468 35.8353 0.0473328 30.024 0.0473328ZM30.024 15.8553C27.1184 15.8553 24.7547 13.4917 24.7547 10.586C24.7547 7.68034 27.1184 5.31667 30.024 5.31667C32.9297 5.31667 35.2934 7.68034 35.2934 10.586C35.2934 13.4917 32.9297 15.8553 30.024 15.8553Z" fill="#F42D2D"/>
<path d="M58.7877 20.391L57.0176 17.6158L55.6985 20.633C54.7602 22.7772 53.4086 23.6776 52.3212 24.3997C51.0137 25.267 51.072 25.3058 49.6334 27.055C48.7466 28.1391 47.3297 29.8697 46.5476 30.3741C46.4498 30.187 46.316 29.8681 46.1772 29.3501C46.0365 28.8253 45.4941 27.2265 44.0309 26.7531C42.5009 26.2487 41.2058 27.3243 40.0532 28.266C39.497 28.7128 39.137 28.0732 39.427 27.3363C39.506 27.1322 39.6141 26.9419 39.7289 26.7308L40.8164 24.6193C39.1957 23.9037 39.1474 23.8329 38.3727 23.57C33.8121 30.2486 32.456 32.8876 30.0239 36.8064C27.3874 32.5863 26.3644 30.4068 20.9347 22.4821C20.3155 21.5786 19.7849 20.7842 19.269 19.9952C15.6056 19.4363 13.9923 19.2152 2.42134 17.4891C2.13142 19.1547 2.26185 19.5308 1.21842 25.0295C-1.47467 39.2109 -1.34682 42.6505 19.2519 51.8685C23.4441 53.7449 24.4166 54.8909 25.3566 55.9988C27.5487 58.588 28.484 58.5338 30.2126 59.7655C31.6288 54.8161 31.5653 54.5956 31.6397 54.491C37.9536 53.1628 36.6686 53.4709 39.3275 52.8117C43.7513 51.7157 43.8615 51.7242 48.0742 57.6626L49.6968 59.9525L51.0466 57.4928C52.1496 55.4807 52.2662 53.5031 51.4001 51.4515C50.2011 48.6025 50.8666 47.4943 51.9679 45.6608C52.9388 44.0434 54.148 41.9125 54.1206 38.578C54.0948 35.6449 55.0246 33.4064 56.9593 31.7324C58.3154 30.5593 58.8231 27.5971 59.407 26.4287C60.3657 24.5196 60.1634 22.5454 58.7877 20.391Z" fill="#F42D2D"/>
</svg>
