<svg width="305" height="968" viewBox="0 0 305 968" fill="none" xmlns="http://www.w3.org/2000/svg">
<path d="M252.767 70.864C248.591 70.864 244.871 69.832 241.607 67.768C238.343 65.704 235.775 62.728 233.903 58.84C232.079 54.904 231.167 50.224 231.167 44.8C231.167 39.376 232.079 34.72 233.903 30.832C235.775 26.896 238.343 23.896 241.607 21.832C244.871 19.768 248.591 18.736 252.767 18.736C256.943 18.736 260.663 19.768 263.927 21.832C267.191 23.896 269.735 26.896 271.559 30.832C273.431 34.72 274.367 39.376 274.367 44.8C274.367 50.224 273.431 54.904 271.559 58.84C269.735 62.728 267.191 65.704 263.927 67.768C260.663 69.832 256.943 70.864 252.767 70.864ZM252.767 61C255.839 61 258.239 59.68 259.967 57.04C261.743 54.4 262.631 50.32 262.631 44.8C262.631 39.28 261.743 35.2 259.967 32.56C258.239 29.92 255.839 28.6 252.767 28.6C249.743 28.6 247.343 29.92 245.567 32.56C243.839 35.2 242.975 39.28 242.975 44.8C242.975 50.32 243.839 54.4 245.567 57.04C247.343 59.68 249.743 61 252.767 61ZM299.053 19.6V70H287.389V28.96H277.309V19.6H299.053Z" fill="#E6E7FF" fill-opacity="0.4"/>
<path d="M237.494 155.864C233.318 155.864 229.598 154.832 226.334 152.768C223.07 150.704 220.502 147.728 218.63 143.84C216.806 139.904 215.894 135.224 215.894 129.8C215.894 124.376 216.806 119.72 218.63 115.832C220.502 111.896 223.07 108.896 226.334 106.832C229.598 104.768 233.318 103.736 237.494 103.736C241.67 103.736 245.39 104.768 248.654 106.832C251.918 108.896 254.462 111.896 256.286 115.832C258.158 119.72 259.094 124.376 259.094 129.8C259.094 135.224 258.158 139.904 256.286 143.84C254.462 147.728 251.918 150.704 248.654 152.768C245.39 154.832 241.67 155.864 237.494 155.864ZM237.494 146C240.566 146 242.966 144.68 244.694 142.04C246.47 139.4 247.358 135.32 247.358 129.8C247.358 124.28 246.47 120.2 244.694 117.56C242.966 114.92 240.566 113.6 237.494 113.6C234.47 113.6 232.07 114.92 230.294 117.56C228.566 120.2 227.702 124.28 227.702 129.8C227.702 135.32 228.566 139.4 230.294 142.04C232.07 144.68 234.47 146 237.494 146ZM301.995 145.496V155H263.907V147.44L283.347 129.08C285.411 127.112 286.803 125.432 287.523 124.04C288.243 122.6 288.603 121.184 288.603 119.792C288.603 117.776 287.907 116.24 286.515 115.184C285.171 114.08 283.179 113.528 280.539 113.528C278.331 113.528 276.339 113.96 274.563 114.824C272.787 115.64 271.299 116.888 270.099 118.568L261.603 113.096C263.571 110.168 266.283 107.888 269.739 106.256C273.195 104.576 277.155 103.736 281.619 103.736C285.363 103.736 288.627 104.36 291.411 105.608C294.243 106.808 296.427 108.536 297.963 110.792C299.547 113 300.339 115.616 300.339 118.64C300.339 121.376 299.763 123.944 298.611 126.344C297.459 128.744 295.227 131.48 291.915 134.552L280.323 145.496H301.995Z" fill="#E6E7FF" fill-opacity="0.4"/>
<path d="M229.9 358.864C225.724 358.864 222.004 357.832 218.74 355.768C215.476 353.704 212.908 350.728 211.036 346.84C209.212 342.904 208.3 338.224 208.3 332.8C208.3 327.376 209.212 322.72 211.036 318.832C212.908 314.896 215.476 311.896 218.74 309.832C222.004 307.768 225.724 306.736 229.9 306.736C234.076 306.736 237.796 307.768 241.06 309.832C244.324 311.896 246.868 314.896 248.692 318.832C250.564 322.72 251.5 327.376 251.5 332.8C251.5 338.224 250.564 342.904 248.692 346.84C246.868 350.728 244.324 353.704 241.06 355.768C237.796 357.832 234.076 358.864 229.9 358.864ZM229.9 349C232.972 349 235.372 347.68 237.1 345.04C238.876 342.4 239.764 338.32 239.764 332.8C239.764 327.28 238.876 323.2 237.1 320.56C235.372 317.92 232.972 316.6 229.9 316.6C226.876 316.6 224.476 317.92 222.7 320.56C220.972 323.2 220.108 327.28 220.108 332.8C220.108 338.32 220.972 342.4 222.7 345.04C224.476 347.68 226.876 349 229.9 349ZM303.319 347.416H295.111V358H283.735V347.416H256.591V339.568L280.351 307.6H292.591L270.559 337.912H284.095V328.48H295.111V337.912H303.319V347.416Z" fill="#E6E7FF" fill-opacity="0.4"/>
<path d="M233.697 559.864C229.521 559.864 225.801 558.832 222.537 556.768C219.273 554.704 216.705 551.728 214.833 547.84C213.009 543.904 212.097 539.224 212.097 533.8C212.097 528.376 213.009 523.72 214.833 519.832C216.705 515.896 219.273 512.896 222.537 510.832C225.801 508.768 229.521 507.736 233.697 507.736C237.873 507.736 241.593 508.768 244.857 510.832C248.121 512.896 250.665 515.896 252.489 519.832C254.361 523.72 255.297 528.376 255.297 533.8C255.297 539.224 254.361 543.904 252.489 547.84C250.665 551.728 248.121 554.704 244.857 556.768C241.593 558.832 237.873 559.864 233.697 559.864ZM233.697 550C236.769 550 239.169 548.68 240.897 546.04C242.673 543.4 243.561 539.32 243.561 533.8C243.561 528.28 242.673 524.2 240.897 521.56C239.169 518.92 236.769 517.6 233.697 517.6C230.673 517.6 228.273 518.92 226.497 521.56C224.769 524.2 223.905 528.28 223.905 533.8C223.905 539.32 224.769 543.4 226.497 546.04C228.273 548.68 230.673 550 233.697 550ZM285.228 527.392C288.444 527.392 291.372 528.04 294.012 529.336C296.652 530.632 298.74 532.48 300.276 534.88C301.812 537.232 302.58 539.968 302.58 543.088C302.58 546.448 301.74 549.4 300.06 551.944C298.38 554.488 296.076 556.456 293.148 557.848C290.268 559.192 287.052 559.864 283.5 559.864C276.444 559.864 270.924 557.704 266.94 553.384C262.956 549.064 260.964 542.896 260.964 534.88C260.964 529.168 262.044 524.272 264.204 520.192C266.364 516.112 269.364 513.016 273.204 510.904C277.092 508.792 281.58 507.736 286.668 507.736C289.356 507.736 291.924 508.048 294.372 508.672C296.868 509.248 298.98 510.088 300.708 511.192L296.388 519.76C293.892 518.08 290.748 517.24 286.956 517.24C282.684 517.24 279.3 518.488 276.804 520.984C274.308 523.48 272.964 527.104 272.772 531.856C275.748 528.88 279.9 527.392 285.228 527.392ZM282.852 551.152C285.348 551.152 287.364 550.48 288.9 549.136C290.484 547.792 291.276 545.968 291.276 543.664C291.276 541.36 290.484 539.536 288.9 538.192C287.364 536.8 285.3 536.104 282.708 536.104C280.164 536.104 278.076 536.824 276.444 538.264C274.812 539.656 273.996 541.456 273.996 543.664C273.996 545.872 274.788 547.672 276.372 549.064C277.956 550.456 280.116 551.152 282.852 551.152Z" fill="#E6E7FF" fill-opacity="0.4"/>
<path d="M233.01 707.864C228.834 707.864 225.114 706.832 221.85 704.768C218.586 702.704 216.018 699.728 214.146 695.84C212.322 691.904 211.41 687.224 211.41 681.8C211.41 676.376 212.322 671.72 214.146 667.832C216.018 663.896 218.586 660.896 221.85 658.832C225.114 656.768 228.834 655.736 233.01 655.736C237.186 655.736 240.906 656.768 244.17 658.832C247.434 660.896 249.978 663.896 251.802 667.832C253.674 671.72 254.61 676.376 254.61 681.8C254.61 687.224 253.674 691.904 251.802 695.84C249.978 699.728 247.434 702.704 244.17 704.768C240.906 706.832 237.186 707.864 233.01 707.864ZM233.01 698C236.082 698 238.482 696.68 240.21 694.04C241.986 691.4 242.874 687.32 242.874 681.8C242.874 676.28 241.986 672.2 240.21 669.56C238.482 666.92 236.082 665.6 233.01 665.6C229.986 665.6 227.586 666.92 225.81 669.56C224.082 672.2 223.218 676.28 223.218 681.8C223.218 687.32 224.082 691.4 225.81 694.04C227.586 696.68 229.986 698 233.01 698ZM294.765 680.504C297.261 681.752 299.157 683.384 300.453 685.4C301.797 687.416 302.469 689.744 302.469 692.384C302.469 695.504 301.581 698.24 299.805 700.592C298.029 702.896 295.533 704.696 292.317 705.992C289.101 707.24 285.381 707.864 281.157 707.864C276.933 707.864 273.213 707.24 269.997 705.992C266.829 704.696 264.357 702.896 262.581 700.592C260.853 698.24 259.989 695.504 259.989 692.384C259.989 689.744 260.637 687.416 261.933 685.4C263.277 683.384 265.173 681.752 267.621 680.504C265.749 679.352 264.309 677.912 263.301 676.184C262.293 674.408 261.789 672.392 261.789 670.136C261.789 667.208 262.605 664.664 264.237 662.504C265.869 660.344 268.149 658.688 271.077 657.536C274.005 656.336 277.365 655.736 281.157 655.736C284.997 655.736 288.381 656.336 291.309 657.536C294.285 658.688 296.589 660.344 298.221 662.504C299.853 664.664 300.669 667.208 300.669 670.136C300.669 672.392 300.165 674.408 299.157 676.184C298.149 677.912 296.685 679.352 294.765 680.504ZM281.157 664.304C278.805 664.304 276.909 664.88 275.469 666.032C274.077 667.136 273.381 668.672 273.381 670.64C273.381 672.56 274.077 674.072 275.469 675.176C276.861 676.28 278.757 676.832 281.157 676.832C283.557 676.832 285.477 676.28 286.917 675.176C288.357 674.072 289.077 672.56 289.077 670.64C289.077 668.672 288.357 667.136 286.917 666.032C285.477 664.88 283.557 664.304 281.157 664.304ZM281.157 699.296C284.085 699.296 286.389 698.648 288.069 697.352C289.797 696.008 290.661 694.232 290.661 692.024C290.661 689.816 289.797 688.064 288.069 686.768C286.389 685.472 284.085 684.824 281.157 684.824C278.277 684.824 275.997 685.472 274.317 686.768C272.637 688.064 271.797 689.816 271.797 692.024C271.797 694.28 272.637 696.056 274.317 697.352C275.997 698.648 278.277 699.296 281.157 699.296Z" fill="#E6E7FF" fill-opacity="0.4"/>
<path d="M249.186 829.6V880H237.521V838.96H227.442V829.6H249.186ZM279.541 880.864C275.365 880.864 271.645 879.832 268.381 877.768C265.117 875.704 262.549 872.728 260.677 868.84C258.853 864.904 257.941 860.224 257.941 854.8C257.941 849.376 258.853 844.72 260.677 840.832C262.549 836.896 265.117 833.896 268.381 831.832C271.645 829.768 275.365 828.736 279.541 828.736C283.717 828.736 287.437 829.768 290.701 831.832C293.965 833.896 296.509 836.896 298.333 840.832C300.205 844.72 301.141 849.376 301.141 854.8C301.141 860.224 300.205 864.904 298.333 868.84C296.509 872.728 293.965 875.704 290.701 877.768C287.437 879.832 283.717 880.864 279.541 880.864ZM279.541 871C282.613 871 285.013 869.68 286.741 867.04C288.517 864.4 289.405 860.32 289.405 854.8C289.405 849.28 288.517 845.2 286.741 842.56C285.013 839.92 282.613 838.6 279.541 838.6C276.517 838.6 274.117 839.92 272.341 842.56C270.613 845.2 269.749 849.28 269.749 854.8C269.749 860.32 270.613 864.4 272.341 867.04C274.117 869.68 276.517 871 279.541 871Z" fill="#E6E7FF" fill-opacity="0.4"/>
<path d="M237.635 252.864C233.459 252.864 229.739 251.832 226.475 249.768C223.211 247.704 220.643 244.728 218.771 240.84C216.947 236.904 216.035 232.224 216.035 226.8C216.035 221.376 216.947 216.72 218.771 212.832C220.643 208.896 223.211 205.896 226.475 203.832C229.739 201.768 233.459 200.736 237.635 200.736C241.811 200.736 245.531 201.768 248.795 203.832C252.059 205.896 254.603 208.896 256.427 212.832C258.299 216.72 259.235 221.376 259.235 226.8C259.235 232.224 258.299 236.904 256.427 240.84C254.603 244.728 252.059 247.704 248.795 249.768C245.531 251.832 241.811 252.864 237.635 252.864ZM237.635 243C240.707 243 243.107 241.68 244.835 239.04C246.611 236.4 247.499 232.32 247.499 226.8C247.499 221.28 246.611 217.2 244.835 214.56C243.107 211.92 240.707 210.6 237.635 210.6C234.611 210.6 232.211 211.92 230.435 214.56C228.707 217.2 227.843 221.28 227.843 226.8C227.843 232.32 228.707 236.4 230.435 239.04C232.211 241.68 234.611 243 237.635 243ZM287.743 222.12C292.159 222.84 295.543 224.496 297.895 227.088C300.247 229.632 301.423 232.8 301.423 236.592C301.423 239.52 300.655 242.232 299.119 244.728C297.583 247.176 295.231 249.144 292.063 250.632C288.943 252.12 285.103 252.864 280.543 252.864C276.991 252.864 273.487 252.408 270.031 251.496C266.623 250.536 263.719 249.192 261.319 247.464L265.855 238.536C267.775 239.976 269.983 241.104 272.479 241.92C275.023 242.688 277.615 243.072 280.255 243.072C283.183 243.072 285.487 242.52 287.167 241.416C288.847 240.264 289.687 238.656 289.687 236.592C289.687 232.464 286.543 230.4 280.255 230.4H274.927V222.696L285.295 210.96H263.839V201.6H299.119V209.16L287.743 222.12Z" fill="#E6E7FF" fill-opacity="0.4"/>
<path d="M236.721 468.864C232.545 468.864 228.825 467.832 225.561 465.768C222.297 463.704 219.729 460.728 217.857 456.84C216.033 452.904 215.121 448.224 215.121 442.8C215.121 437.376 216.033 432.72 217.857 428.832C219.729 424.896 222.297 421.896 225.561 419.832C228.825 417.768 232.545 416.736 236.721 416.736C240.897 416.736 244.617 417.768 247.881 419.832C251.145 421.896 253.689 424.896 255.513 428.832C257.385 432.72 258.321 437.376 258.321 442.8C258.321 448.224 257.385 452.904 255.513 456.84C253.689 460.728 251.145 463.704 247.881 465.768C244.617 467.832 240.897 468.864 236.721 468.864ZM236.721 459C239.793 459 242.193 457.68 243.921 455.04C245.697 452.4 246.585 448.32 246.585 442.8C246.585 437.28 245.697 433.2 243.921 430.56C242.193 427.92 239.793 426.6 236.721 426.6C233.697 426.6 231.297 427.92 229.521 430.56C227.793 433.2 226.929 437.28 226.929 442.8C226.929 448.32 227.793 452.4 229.521 455.04C231.297 457.68 233.697 459 236.721 459ZM281.268 436.536C288.372 436.536 293.604 437.952 296.964 440.784C300.372 443.616 302.076 447.408 302.076 452.16C302.076 455.232 301.308 458.04 299.772 460.584C298.236 463.08 295.884 465.096 292.716 466.632C289.596 468.12 285.732 468.864 281.124 468.864C277.572 468.864 274.068 468.408 270.612 467.496C267.204 466.536 264.3 465.192 261.9 463.464L266.508 454.536C268.428 455.976 270.636 457.104 273.132 457.92C275.628 458.688 278.196 459.072 280.836 459.072C283.764 459.072 286.068 458.496 287.748 457.344C289.428 456.192 290.268 454.584 290.268 452.52C290.268 450.36 289.38 448.728 287.604 447.624C285.876 446.52 282.852 445.968 278.532 445.968H265.644L268.236 417.6H298.98V426.96H277.956L277.164 436.536H281.268Z" fill="#E6E7FF" fill-opacity="0.4"/>
<path d="M235.174 633.864C230.998 633.864 227.278 632.832 224.014 630.768C220.75 628.704 218.182 625.728 216.31 621.84C214.486 617.904 213.574 613.224 213.574 607.8C213.574 602.376 214.486 597.72 216.31 593.832C218.182 589.896 220.75 586.896 224.014 584.832C227.278 582.768 230.998 581.736 235.174 581.736C239.35 581.736 243.07 582.768 246.334 584.832C249.598 586.896 252.142 589.896 253.966 593.832C255.838 597.72 256.774 602.376 256.774 607.8C256.774 613.224 255.838 617.904 253.966 621.84C252.142 625.728 249.598 628.704 246.334 630.768C243.07 632.832 239.35 633.864 235.174 633.864ZM235.174 624C238.246 624 240.646 622.68 242.374 620.04C244.15 617.4 245.038 613.32 245.038 607.8C245.038 602.28 244.15 598.2 242.374 595.56C240.646 592.92 238.246 591.6 235.174 591.6C232.15 591.6 229.75 592.92 227.974 595.56C226.246 598.2 225.382 602.28 225.382 607.8C225.382 613.32 226.246 617.4 227.974 620.04C229.75 622.68 232.15 624 235.174 624ZM301.616 582.6V590.16L282.896 633H270.224L288.296 592.104H271.592V600.312H261.224V582.6H301.616Z" fill="#E6E7FF" fill-opacity="0.4"/>
<path d="M233.697 787.864C229.521 787.864 225.801 786.832 222.537 784.768C219.273 782.704 216.705 779.728 214.833 775.84C213.009 771.904 212.097 767.224 212.097 761.8C212.097 756.376 213.009 751.72 214.833 747.832C216.705 743.896 219.273 740.896 222.537 738.832C225.801 736.768 229.521 735.736 233.697 735.736C237.873 735.736 241.593 736.768 244.857 738.832C248.121 740.896 250.665 743.896 252.489 747.832C254.361 751.72 255.297 756.376 255.297 761.8C255.297 767.224 254.361 771.904 252.489 775.84C250.665 779.728 248.121 782.704 244.857 784.768C241.593 786.832 237.873 787.864 233.697 787.864ZM233.697 778C236.769 778 239.169 776.68 240.897 774.04C242.673 771.4 243.561 767.32 243.561 761.8C243.561 756.28 242.673 752.2 240.897 749.56C239.169 746.92 236.769 745.6 233.697 745.6C230.673 745.6 228.273 746.92 226.497 749.56C224.769 752.2 223.905 756.28 223.905 761.8C223.905 767.32 224.769 771.4 226.497 774.04C228.273 776.68 230.673 778 233.697 778ZM278.676 735.736C285.732 735.736 291.252 737.896 295.236 742.216C299.22 746.488 301.212 752.656 301.212 760.72C301.212 766.432 300.132 771.328 297.972 775.408C295.86 779.488 292.86 782.584 288.972 784.696C285.084 786.808 280.596 787.864 275.508 787.864C272.82 787.864 270.252 787.576 267.804 787C265.356 786.376 263.268 785.512 261.54 784.408L265.86 775.84C268.308 777.52 271.452 778.36 275.292 778.36C279.564 778.36 282.948 777.112 285.444 774.616C287.94 772.072 289.284 768.424 289.476 763.672C286.452 766.696 282.276 768.208 276.948 768.208C273.732 768.208 270.804 767.56 268.164 766.264C265.524 764.968 263.436 763.144 261.9 760.792C260.364 758.392 259.596 755.632 259.596 752.512C259.596 749.152 260.436 746.2 262.116 743.656C263.796 741.112 266.076 739.168 268.956 737.824C271.884 736.432 275.124 735.736 278.676 735.736ZM279.54 759.496C282.084 759.496 284.148 758.8 285.732 757.408C287.364 755.968 288.18 754.144 288.18 751.936C288.18 749.728 287.388 747.928 285.804 746.536C284.268 745.144 282.132 744.448 279.396 744.448C276.9 744.448 274.86 745.12 273.276 746.464C271.74 747.808 270.972 749.632 270.972 751.936C270.972 754.24 271.74 756.088 273.276 757.48C274.86 758.824 276.948 759.496 279.54 759.496Z" fill="#E6E7FF" fill-opacity="0.4"/>
<path d="M269.857 917.6V968H258.193V926.96H248.113V917.6H269.857ZM298.053 917.6V968H286.389V926.96H276.309V917.6H298.053Z" fill="#E6E7FF" fill-opacity="0.4"/>
<line x1="19" y1="37" x2="19" y2="934" stroke="#F42D2D" stroke-width="2"/>
<path opacity="0.7" d="M19 38H39" stroke="#F42D2D" stroke-width="2" stroke-dasharray="10 10"/>
<circle opacity="0.2" cx="19" cy="37" r="9" fill="#F42D2D"/>
<circle cx="19" cy="37" r="5" fill="#F42D2D"/>
<circle opacity="0.2" cx="19" cy="122" r="9" fill="#F42D2D"/>
<circle cx="19" cy="122" r="5" fill="#F42D2D"/>
<circle opacity="0.2" cx="19" cy="219" r="9" fill="#F42D2D"/>
<circle cx="19" cy="219" r="5" fill="#F42D2D"/>
<circle opacity="0.2" cx="19" cy="330" r="9" fill="#F42D2D"/>
<circle cx="19" cy="330" r="5" fill="#F42D2D"/>
<circle opacity="0.2" cx="19" cy="440" r="9" fill="#F42D2D"/>
<circle cx="19" cy="440" r="5" fill="#F42D2D"/>
<circle opacity="0.2" cx="19" cy="526" r="9" fill="#F42D2D"/>
<circle cx="19" cy="526" r="5" fill="#F42D2D"/>
<circle opacity="0.2" cx="19" cy="600" r="9" fill="#F42D2D"/>
<circle cx="19" cy="600" r="5" fill="#F42D2D"/>
<circle opacity="0.2" cx="19" cy="674" r="9" fill="#F42D2D"/>
<circle cx="19" cy="674" r="5" fill="#F42D2D"/>
<circle opacity="0.2" cx="19" cy="754" r="9" fill="#F42D2D"/>
<circle cx="19" cy="754" r="5" fill="#F42D2D"/>
<circle opacity="0.2" cx="19" cy="846" r="9" fill="#F42D2D"/>
<circle cx="19" cy="846" r="5" fill="#F42D2D"/>
<path opacity="0.7" d="M19 220.429H39" stroke="#F42D2D" stroke-width="2" stroke-dasharray="10 10"/>
<path opacity="0.7" d="M19 330H39" stroke="#F42D2D" stroke-width="2" stroke-dasharray="10 10"/>
<path opacity="0.7" d="M19 600H39" stroke="#F42D2D" stroke-width="2" stroke-dasharray="10 10"/>
<path opacity="0.7" d="M19 754H39" stroke="#F42D2D" stroke-width="2" stroke-dasharray="10 10"/>
<path opacity="0.7" d="M19 934H39" stroke="#F42D2D" stroke-width="2" stroke-dasharray="10 10"/>
<circle opacity="0.2" cx="19" cy="933" r="19" fill="#F42D2D"/>
<circle cx="19" cy="933" r="5" fill="#F42D2D"/>
<path opacity="0.7" d="M19 122H39" stroke="#F42D2D" stroke-width="2" stroke-dasharray="10 10"/>
<path opacity="0.7" d="M19 526.5H39" stroke="#F42D2D" stroke-width="2" stroke-dasharray="10 10"/>
<path opacity="0.7" d="M19 675.215H39" stroke="#F42D2D" stroke-width="2" stroke-dasharray="10 10"/>
<path opacity="0.7" d="M19 440.5H39" stroke="#F42D2D" stroke-width="2" stroke-dasharray="10 10"/>
<path opacity="0.7" d="M19 846.643H39" stroke="#F42D2D" stroke-width="2" stroke-dasharray="10 10"/>
</svg>
