<svg width="50" height="60" fill="none" xmlns="http://www.w3.org/2000/svg"><path fill-rule="evenodd" clip-rule="evenodd" d="M0 11.928c12.172 0 21.457-7.952 24.578-11.928C27.7 3.976 36.984 11.928 49.157 11.928L46.426 37.59c-1.69 6.386-7.751 13.012-21.848 22.41C10.482 50.602 4.422 43.976 2.731 37.59L0 11.928zm28.682 4.841a13.603 13.603 0 019.237 10.177c.176.894.27 1.816.27 2.724a13.43 13.43 0 01-4.415 9.987c-5.512 5.014-14.059 4.62-19.07-.894-5.011-5.516-4.618-14.066.894-19.08a13.616 13.616 0 019.088-3.51c1.355 0 2.696.203 3.996.596zm.934 14.811a5.12 5.12 0 00-4.93-3.726 2.405 2.405 0 01-2.41-2.399 2.417 2.417 0 012.41-2.412 2.417 2.417 0 012.411 2.412c0 .746.61 1.355 1.355 1.355a1.36 1.36 0 001.354-1.355 5.121 5.121 0 00-3.725-4.932v-.61a1.36 1.36 0 00-1.354-1.355 1.36 1.36 0 00-1.355 1.355v.583c-2.722.731-4.347 3.55-3.63 6.26a5.102 5.102 0 004.93 3.794 2.405 2.405 0 11-2.397 2.413c0-.746-.61-1.355-1.354-1.355-.745 0-1.354.61-1.354 1.355a5.147 5.147 0 003.792 4.946v1.179c0 .745.61 1.355 1.354 1.355a1.36 1.36 0 001.355-1.355v-1.193a5.12 5.12 0 003.548-6.315z" fill="#F42D2D"/></svg>