<svg width="50" height="60" viewBox="0 0 50 60" fill="none" xmlns="http://www.w3.org/2000/svg">
<path fill-rule="evenodd" clip-rule="evenodd" d="M0 11.9277C12.1721 11.9277 21.4573 3.9759 24.5783 0C27.6994 3.9759 36.9845 11.9277 49.1566 11.9277L46.4257 37.5904C44.7351 43.9759 38.6747 50.6024 24.5783 60C10.4819 50.6024 4.4215 43.9759 2.73092 37.5904L0 11.9277ZM28.6818 16.7691C33.3817 18.2462 36.9167 22.1489 37.919 26.9459C38.095 27.8403 38.1899 28.7618 38.1899 29.6697C38.2034 33.4776 36.5916 37.0957 33.7744 39.6568C28.2619 44.6707 19.7155 44.2778 14.7042 38.7625C9.69281 33.2472 10.0856 24.6965 15.5981 19.6826C18.0767 17.4331 21.3273 16.1864 24.6863 16.1729C26.0407 16.1729 27.3816 16.3761 28.6818 16.7691ZM29.6164 31.5804C28.9933 29.3716 26.9752 27.8539 24.6863 27.8539C23.3589 27.8539 22.2754 26.7833 22.2754 25.4553C22.2889 24.1138 23.3589 23.0432 24.6863 23.0432C26.0136 23.0432 27.0971 24.1273 27.0971 25.4553C27.0971 26.2006 27.7066 26.8104 28.4516 26.8104C29.1965 26.8104 29.806 26.2006 29.806 25.4553C29.806 23.1652 28.289 21.1461 26.0813 20.5227V19.9129C26.0813 19.1676 25.4718 18.5578 24.7269 18.5578C23.982 18.5578 23.3725 19.1676 23.3725 19.9129V20.4956C20.6501 21.2274 19.0248 24.046 19.7426 26.7562C20.3386 28.9922 22.3567 30.5505 24.6727 30.5505C26.0001 30.5505 27.0836 31.6211 27.0836 32.9491C27.0836 34.2771 26.0136 35.3612 24.6863 35.3612C23.3589 35.3612 22.2754 34.2906 22.2754 32.9626C22.2754 32.2173 21.6659 31.6075 20.921 31.6075C20.176 31.6075 19.5665 32.2173 19.5665 32.9626C19.5801 35.2799 21.1241 37.299 23.3589 37.9088V39.0877C23.3589 39.833 23.9684 40.4428 24.7134 40.4428C25.4583 40.4428 26.0678 39.833 26.0678 39.0877V37.8952C28.8037 37.1228 30.3748 34.3042 29.6164 31.5804Z" fill="#F42D2D"/>
</svg>
